<svg width="214" height="12" viewBox="0 0 214 12" fill="none" xmlns="http://www.w3.org/2000/svg">
<g clip-path="url(#clip0_69_32)">
<path d="M2.25 10.35C30.56 7.08001 59.02 5.15001 87.51 4.64001C114.16 4.17001 140.84 4.94001 167.42 6.98001C181.99 8.10001 196.53 9.61001 211.02 11.48C212.23 11.64 213.27 10.33 213.27 9.23001C213.27 7.88001 212.23 7.14001 211.02 6.98001C185.24 3.64001 159.3 1.49001 133.32 0.550012C105.91 -0.439988 78.45 -0.0899884 51.07 1.55001C34.76 2.53001 18.48 3.97001 2.25 5.85001C1.04 5.99001 0 6.78001 0 8.10001C0 9.21001 1.03 10.49 2.25 10.35Z" fill="#54A8C7"/>
</g>
<defs>
<clipPath id="clip0_69_32">
<rect width="213.27" height="11.49" fill="white"/>
</clipPath>
</defs>
</svg>
