<svg width="214" height="13" viewBox="0 0 214 13" fill="none" xmlns="http://www.w3.org/2000/svg">
<g clip-path="url(#clip0_208_48)">
<path d="M2.55 10.95C30.86 7.68001 59.32 5.75001 87.81 5.24001C114.46 4.77001 141.14 5.54001 167.72 7.58001C182.29 8.70001 196.83 10.21 211.32 12.08C212.69 12.26 213.87 10.78 213.87 9.53001C213.87 8.00001 212.69 7.16001 211.32 6.98001C185.54 3.64001 159.6 1.49001 133.62 0.550012C106.21 -0.439988 78.75 -0.0899884 51.37 1.55001C35.06 2.53001 18.78 3.97001 2.55 5.85001C1.18 6.01001 0 6.91001 0 8.40001C0 9.66001 1.17 11.11 2.55 10.95Z" fill="#54A8C7"/>
</g>
<defs>
<clipPath id="clip0_208_48">
<rect width="213.87" height="12.1" fill="white"/>
</clipPath>
</defs>
</svg>
