<svg width="137" height="28" viewBox="0 0 137 28" fill="none" xmlns="http://www.w3.org/2000/svg">
<g clip-path="url(#clip0_209_72)">
<mask id="mask0_209_72" style="mask-type:luminance" maskUnits="userSpaceOnUse" x="0" y="0" width="137" height="28">
<path d="M136.23 0H0.788086V28H136.23V0Z" fill="white"/>
</mask>
<g mask="url(#mask0_209_72)">
<path fill-rule="evenodd" clip-rule="evenodd" d="M77.6892 26.796C76.239 26.796 75.0285 26.4584 74.0557 25.7829C73.9489 25.7092 73.846 25.6323 73.7451 25.5524V26.3908H70.5029V1.69263H74.2041V12.2733C75.1125 11.6895 76.2104 11.3976 77.4997 11.3976C78.8958 11.3976 80.1115 11.7308 81.1468 12.3971C82.1828 13.0635 82.9838 13.9775 83.5509 15.1392C84.1279 16.2919 84.4157 17.6111 84.4157 19.0967C84.4157 20.5556 84.1318 21.8658 83.5646 23.0276C83.0066 24.1892 82.2232 25.1076 81.2146 25.7829C80.2059 26.4584 79.0312 26.796 77.6892 26.796ZM74.0694 16.7737C73.8532 17.4399 73.7451 18.2142 73.7451 19.0967C73.7451 19.9791 73.8532 20.7538 74.0694 21.42C74.2849 22.0866 74.6365 22.6041 75.1223 22.9736C75.6178 23.3427 76.2755 23.5271 77.0947 23.5271C77.8871 23.5271 78.5357 23.3292 79.0397 22.933C79.5443 22.5368 79.9181 22.0054 80.161 21.3389C80.4045 20.6637 80.5256 19.9164 80.5256 19.0967C80.5256 18.2863 80.4 17.548 80.1473 16.8818C79.8953 16.2062 79.504 15.6705 78.9726 15.2742C78.4497 14.869 77.779 14.6664 76.9599 14.6664C76.1941 14.6664 75.5729 14.851 75.0956 15.2203C74.6274 15.5894 74.2849 16.1071 74.0694 16.7737Z" fill="#6D8295"/>
<path d="M64.0055 15.5309C64.4647 16.0622 64.6945 16.8097 64.6945 17.773V26.3908H68.3683V16.8007C68.3683 15.2067 67.9405 13.919 67.0849 12.9375C66.2384 11.9469 64.9825 11.4517 63.3167 11.4517C62.3441 11.4517 61.4571 11.6678 60.6557 12.1C59.9219 12.4919 59.3233 13.0305 58.8599 13.7158C58.5142 13.0938 58.0366 12.5823 57.4273 12.181C56.6981 11.6948 55.7615 11.4517 54.618 11.4517C53.6184 11.4517 52.7134 11.6723 51.903 12.1135C51.2905 12.4507 50.7727 12.8799 50.3495 13.4011V11.8028H47.1079V26.3908H50.8087V17.557C50.8087 16.7196 51.0385 16.0397 51.4978 15.5174C51.9661 14.9861 52.5827 14.7204 53.3481 14.7204C54.1498 14.7204 54.7754 14.9906 55.2257 15.5309C55.6849 16.0622 55.9147 16.8097 55.9147 17.773V26.3908H59.5885V17.557C59.5885 16.9987 59.6921 16.5078 59.8994 16.0847C60.1153 15.6524 60.4124 15.3192 60.7909 15.0851C61.1691 14.842 61.6148 14.7204 62.1281 14.7204C62.9295 14.7204 63.5552 14.9906 64.0055 15.5309Z" fill="#6D8295"/>
<path d="M33.945 26.2421C34.6653 26.6293 35.5973 26.823 36.7411 26.823C38.1727 26.823 39.357 26.5124 40.2936 25.891C40.7381 25.5991 41.1297 25.264 41.4686 24.8865V26.3907H44.7105V11.8027H41.0093V19.2048C41.0093 20.1053 40.9057 20.8346 40.6988 21.3929C40.5005 21.9423 40.244 22.361 39.9286 22.6491C39.6135 22.9284 39.2759 23.1173 38.9158 23.2164C38.5556 23.3156 38.2177 23.3652 37.9026 23.3652C37.1193 23.3652 36.5113 23.1894 36.0791 22.8383C35.6559 22.4871 35.3498 22.0504 35.1606 21.5281C34.9716 21.0057 34.859 20.4879 34.823 19.9746C34.7869 19.4525 34.7689 19.0248 34.7689 18.6914V11.8027H31.041V19.9881C31.041 20.2314 31.0587 20.6186 31.0948 21.1499C31.1308 21.6813 31.2345 22.2709 31.4057 22.9194C31.5766 23.5586 31.8604 24.1755 32.2566 24.77C32.6618 25.3641 33.2247 25.8549 33.945 26.2421Z" fill="#6D8295"/>
<path d="M89.6843 13.5317C89.5352 13.7279 89.3997 13.934 89.2793 14.1503V11.8028H86.0371V26.3908H89.7383V18.9348C89.7383 18.3763 89.8145 17.8766 89.9682 17.4353C90.1212 16.985 90.3459 16.5979 90.6434 16.2738C90.9404 15.9405 91.305 15.6749 91.7374 15.4768C92.1698 15.2697 92.6516 15.1481 93.183 15.1121C93.7228 15.067 94.1955 15.1076 94.6012 15.2337V11.8028C94.1597 11.7487 93.7182 11.7397 93.2774 11.7758C92.8359 11.8028 92.4081 11.8793 91.9939 12.0054C91.5798 12.1225 91.1969 12.2891 90.8459 12.5052C90.3869 12.7753 89.9994 13.1175 89.6843 13.5317Z" fill="#6D8295"/>
<path fill-rule="evenodd" clip-rule="evenodd" d="M102.336 26.796C100.842 26.796 99.5227 26.4764 98.3793 25.8369C97.2443 25.1888 96.3528 24.3017 95.7043 23.1759C95.0648 22.0415 94.7451 20.7448 94.7451 19.2859C94.7451 17.6922 95.0603 16.3053 95.6913 15.1256C96.3209 13.946 97.1902 13.032 98.2979 12.3836C99.4055 11.7263 100.68 11.3976 102.12 11.3976C103.651 11.3976 104.953 11.7578 106.024 12.4782C107.096 13.1986 107.888 14.2116 108.401 15.5174C108.914 16.8232 109.095 18.3584 108.942 20.1234H98.6983C98.8129 20.999 99.0851 21.7103 99.5136 22.2574C100.108 22.9961 100.977 23.3652 102.12 23.3652C102.841 23.3652 103.458 23.2075 103.971 22.8924C104.485 22.5773 104.876 22.1226 105.146 21.5282L108.82 22.5819C108.27 23.9146 107.402 24.95 106.213 25.6883C105.033 26.4269 103.742 26.796 102.336 26.796ZM104.593 15.5714C104.907 15.998 105.117 16.606 105.224 17.3948H98.7954C98.9386 16.7212 99.1776 16.1673 99.5136 15.7335C100.108 14.968 101.031 14.5853 102.282 14.5853C103.354 14.5853 104.124 14.9141 104.593 15.5714Z" fill="#6D8295"/>
<path fill-rule="evenodd" clip-rule="evenodd" d="M125.318 26.2016C126.047 26.5977 126.935 26.796 127.978 26.796C129.239 26.796 130.28 26.5798 131.099 26.1475C131.753 25.7996 132.369 25.284 132.949 24.6001V26.3908H136.164V17.4759C136.164 16.8097 136.138 16.2062 136.083 15.666C136.029 15.1256 135.858 14.5853 135.57 14.045C135.057 13.0725 134.301 12.3881 133.3 11.992C132.301 11.5957 131.157 11.3976 129.87 11.3976C128.114 11.3976 126.727 11.7758 125.71 12.5322C124.692 13.2886 123.999 14.2702 123.629 15.4769L126.952 16.5303C127.187 15.864 127.596 15.4003 128.182 15.1392C128.766 14.878 129.33 14.7474 129.87 14.7474C130.842 14.7474 131.536 14.9501 131.95 15.3553C132.275 15.6735 132.473 16.1332 132.542 16.7347C131.921 16.829 131.331 16.9185 130.775 17.0031C129.829 17.1383 128.983 17.2825 128.236 17.4354C127.488 17.5885 126.844 17.7643 126.304 17.9621C125.52 18.2502 124.895 18.6107 124.426 19.0429C123.967 19.4661 123.634 19.9566 123.427 20.515C123.22 21.0734 123.116 21.6904 123.116 22.3656C123.116 23.1759 123.301 23.9188 123.67 24.5943C124.048 25.2605 124.598 25.7964 125.318 26.2016ZM130.465 23.5541C130.005 23.7884 129.438 23.9056 128.762 23.9056C128.339 23.9056 127.975 23.8425 127.668 23.7163C127.362 23.5901 127.123 23.4103 126.952 23.1759C126.79 22.933 126.709 22.6446 126.709 22.3115C126.709 22.0685 126.759 21.8478 126.858 21.6498C126.966 21.4515 127.128 21.2716 127.344 21.1094C127.569 20.9382 127.862 20.7808 128.222 20.6367C128.537 20.5195 128.902 20.4114 129.316 20.3126C129.73 20.2134 130.275 20.1053 130.95 19.9882C131.385 19.9074 131.904 19.815 132.509 19.7117C132.501 19.9685 132.485 20.2588 132.463 20.5826C132.436 21.1049 132.328 21.5642 132.139 21.9604C132.04 22.1674 131.851 22.4242 131.572 22.7302C131.302 23.0363 130.933 23.3111 130.465 23.5541Z" fill="#6D8295"/>
<path d="M110.911 1.28735V26.3908H114.585V1.28735H110.911Z" fill="#6D8295"/>
<path d="M117.554 26.3908V1.28735H121.228V26.3908H117.554Z" fill="#6D8295"/>
<path fill-rule="evenodd" clip-rule="evenodd" d="M10.7651 11.9081H0.788086V16.2529C0.788086 22.7405 6.04745 28 12.5352 28C19.023 28 24.2825 22.7405 24.2825 16.2529V11.9081H13.9835V4.98851C13.9835 2.23344 11.7501 0 8.99495 0C6.23991 0 4.00648 2.23344 4.00648 4.98851H7.22487C7.22487 4.01089 8.01743 3.21839 8.99495 3.21839C9.97261 3.21839 10.7651 4.01089 10.7651 4.98851V11.9081ZM10.7651 15.1264V21.2414H13.9835V15.1264H21.0641V16.2529C21.0641 20.9633 17.2455 24.7816 12.5352 24.7816C7.82494 24.7816 4.00648 20.9633 4.00648 16.2529V15.1264H10.7651Z" fill="#6D8295"/>
</g>
</g>
<defs>
<clipPath id="clip0_209_72">
<rect width="137" height="28" fill="white"/>
</clipPath>
</defs>
</svg>
