<svg width="165" height="41" viewBox="0 0 165 41" fill="none" xmlns="http://www.w3.org/2000/svg">
<g clip-path="url(#clip0_209_55)">
<mask id="mask0_209_55" style="mask-type:luminance" maskUnits="userSpaceOnUse" x="0" y="0" width="165" height="41">
<path d="M164.805 0H0.121582V41H164.805V0Z" fill="white"/>
</mask>
<g mask="url(#mask0_209_55)">
<path d="M51.405 25.0346H45.3327L44.3278 27.9398H41.1167L46.5994 12.6711H50.16L55.643 27.9398H52.4099L51.405 25.0346ZM50.5753 22.5882L48.3691 16.2098L46.1624 22.5882H50.5753Z" fill="#6D8295"/>
<path d="M68.2428 15.8385V27.9399H65.1628V26.411C64.7695 26.9354 64.2529 27.3502 63.6119 27.6561C62.9858 27.9474 62.3012 28.093 61.5588 28.093C60.6121 28.093 59.7747 27.8962 59.0468 27.5029C58.3185 27.0953 57.7433 26.5057 57.3208 25.7336C56.9132 24.9472 56.7095 24.0153 56.7095 22.9379V15.8385H59.7675V22.5009C59.7675 23.4621 60.0076 24.2049 60.4882 24.7291C60.9688 25.2386 61.6241 25.4935 62.4543 25.4935C63.2989 25.4935 63.9614 25.2386 64.4421 24.7291C64.9227 24.2049 65.1628 23.4621 65.1628 22.5009V15.8385H68.2428Z" fill="#6D8295"/>
<path d="M73.9467 18.3506V24.2049C73.9467 24.6125 74.0417 24.9112 74.231 25.1004C74.4346 25.2751 74.7701 25.3625 75.2355 25.3625H76.6554V27.9399H74.7332C72.1557 27.9399 70.8669 26.6877 70.8669 24.1829V18.3506H69.4258V15.8385H70.8669V12.8459H73.9467V15.8385H76.6554V18.3506H73.9467Z" fill="#6D8295"/>
<path d="M83.355 28.1366C82.1906 28.1366 81.1417 27.8818 80.2096 27.3719C79.2775 26.848 78.5423 26.1124 78.0038 25.1657C77.479 24.2193 77.2173 23.127 77.2173 21.8892C77.2173 20.6514 77.4865 19.5592 78.025 18.6127C78.5785 17.6661 79.3288 16.938 80.2752 16.4283C81.2216 15.9041 82.2774 15.642 83.4425 15.642C84.6075 15.642 85.6633 15.9041 86.6097 16.4283C87.5568 16.938 88.2989 17.6661 88.838 18.6127C89.3915 19.5592 89.6676 20.6514 89.6676 21.8892C89.6676 23.127 89.384 24.2193 88.8162 25.1657C88.2627 26.1124 87.5056 26.848 86.5448 27.3719C85.5977 27.8818 84.5344 28.1366 83.355 28.1366ZM83.355 25.4715C83.9085 25.4715 84.4258 25.3405 84.9062 25.0783C85.4016 24.8017 85.7945 24.394 86.0856 23.8554C86.3767 23.3162 86.5222 22.6612 86.5222 21.8892C86.5222 20.7388 86.2168 19.8578 85.6052 19.2461C85.008 18.6199 84.2727 18.3069 83.3987 18.3069C82.5247 18.3069 81.7902 18.6199 81.1922 19.2461C80.61 19.8578 80.3189 20.7388 80.3189 21.8892C80.3189 23.0397 80.6032 23.9279 81.1711 24.5544C81.7533 25.1657 82.481 25.4715 83.355 25.4715Z" fill="#6D8295"/>
<path d="M106.066 15.6638C107.552 15.6638 108.745 16.1226 109.648 17.0401C110.566 17.9429 111.024 19.2097 111.024 20.8408V27.9399H107.966V21.2559C107.966 20.3092 107.726 19.5885 107.246 19.0935C106.765 18.5836 106.11 18.3288 105.28 18.3288C104.449 18.3288 103.787 18.5836 103.292 19.0935C102.811 19.5885 102.571 20.3092 102.571 21.2559V27.9399H99.513V21.2559C99.513 20.3092 99.2724 19.5885 98.7921 19.0935C98.311 18.5836 97.6557 18.3288 96.8261 18.3288C95.9815 18.3288 95.3112 18.5836 94.8164 19.0935C94.336 19.5885 94.0955 20.3092 94.0955 21.2559V27.9399H91.0376V15.8386H94.0955V17.3021C94.4884 16.7925 94.9914 16.392 95.6029 16.1007C96.2289 15.8095 96.9129 15.6638 97.6557 15.6638C98.6028 15.6638 99.4474 15.8677 100.19 16.2755C100.933 16.6687 101.508 17.2366 101.916 17.9793C102.309 17.2803 102.877 16.7196 103.62 16.2973C104.377 15.875 105.192 15.6638 106.066 15.6638Z" fill="#6D8295"/>
<path d="M112.266 21.8455C112.266 20.6222 112.507 19.5375 112.988 18.5909C113.482 17.6443 114.145 16.9162 114.975 16.4065C115.819 15.8968 116.759 15.642 117.793 15.642C118.696 15.642 119.482 15.824 120.152 16.188C120.836 16.5521 121.382 17.0108 121.79 17.5642V15.8385H124.87V27.9398H121.79V26.1706C121.397 26.7386 120.851 27.212 120.152 27.5903C119.468 27.9547 118.674 28.1366 117.771 28.1366C116.752 28.1366 115.819 27.8745 114.975 27.3502C114.145 26.8259 113.482 26.0904 112.988 25.144C112.507 24.1828 112.266 23.0833 112.266 21.8455ZM121.79 21.8892C121.79 21.1465 121.645 20.5132 121.354 19.9889C121.062 19.4501 120.669 19.0421 120.174 18.7655C119.679 18.4743 119.147 18.3287 118.579 18.3287C118.012 18.3287 117.487 18.4671 117.006 18.7439C116.526 19.0204 116.133 19.4281 115.827 19.9669C115.536 20.4911 115.39 21.1176 115.39 21.8455C115.39 22.5738 115.536 23.2144 115.827 23.768C116.133 24.3067 116.526 24.7216 117.006 25.0129C117.502 25.3044 118.026 25.4499 118.579 25.4499C119.147 25.4499 119.679 25.3115 120.174 25.0346C120.669 24.7436 121.062 24.3359 121.354 23.8116C121.645 23.2725 121.79 22.632 121.79 21.8892Z" fill="#6D8295"/>
<path d="M130.544 18.3506V24.2049C130.544 24.6125 130.639 24.9112 130.828 25.1004C131.032 25.2751 131.367 25.3625 131.833 25.3625H133.253V27.9399H131.331C128.753 27.9399 127.464 26.6877 127.464 24.1829V18.3506H126.022V15.8385H127.464V12.8459H130.544V15.8385H133.253V18.3506H130.544Z" fill="#6D8295"/>
<path d="M136.129 14.3968C135.59 14.3968 135.139 14.2293 134.775 13.8944C134.426 13.5449 134.251 13.1153 134.251 12.6057C134.251 12.0959 134.426 11.6736 134.775 11.3387C135.139 10.9892 135.59 10.8145 136.129 10.8145C136.668 10.8145 137.112 10.9892 137.461 11.3387C137.826 11.6736 138.008 12.0959 138.008 12.6057C138.008 13.1153 137.826 13.5449 137.461 13.8944C137.112 14.2293 136.668 14.3968 136.129 14.3968ZM137.636 15.8385V27.9399H134.578V15.8385H137.636Z" fill="#6D8295"/>
<path d="M145.158 28.1366C143.993 28.1366 142.944 27.8818 142.012 27.3719C141.08 26.848 140.345 26.1124 139.806 25.1657C139.282 24.2193 139.02 23.127 139.02 21.8892C139.02 20.6514 139.289 19.5592 139.828 18.6127C140.381 17.6661 141.132 16.938 142.078 16.4283C143.024 15.9041 144.08 15.642 145.245 15.642C146.41 15.642 147.466 15.9041 148.412 16.4283C149.36 16.938 150.102 17.6661 150.641 18.6127C151.194 19.5592 151.471 20.6514 151.471 21.8892C151.471 23.127 151.187 24.2193 150.619 25.1657C150.065 26.1124 149.308 26.848 148.347 27.3719C147.4 27.8818 146.337 28.1366 145.158 28.1366ZM145.158 25.4715C145.711 25.4715 146.229 25.3405 146.709 25.0783C147.204 24.8017 147.597 24.394 147.888 23.8554C148.179 23.3162 148.325 22.6612 148.325 21.8892C148.325 20.7388 148.02 19.8578 147.408 19.2461C146.811 18.6199 146.075 18.3069 145.201 18.3069C144.328 18.3069 143.592 18.6199 142.995 19.2461C142.413 19.8578 142.122 20.7388 142.122 21.8892C142.122 23.0397 142.405 23.9279 142.974 24.5544C143.556 25.1657 144.284 25.4715 145.158 25.4715Z" fill="#6D8295"/>
<path d="M159.546 15.6638C160.988 15.6638 162.153 16.1226 163.041 17.0401C163.93 17.9429 164.374 19.2097 164.374 20.8408V27.9399H161.316V21.2559C161.316 20.2948 161.075 19.5592 160.595 19.0497C160.114 18.5254 159.459 18.2633 158.629 18.2633C157.784 18.2633 157.114 18.5254 156.619 19.0497C156.139 19.5592 155.898 20.2948 155.898 21.2559V27.9399H152.84V15.8386H155.898V17.3458C156.306 16.8216 156.823 16.4138 157.45 16.1226C158.09 15.8167 158.789 15.6638 159.546 15.6638Z" fill="#6D8295"/>
<path d="M16.0586 16.8881V13.2089C11.5718 13.3633 7.98183 17.0493 7.98183 21.5736V22.1594H0.121582V21.5736C0.121582 12.708 7.23023 5.50253 16.0586 5.34623V1.3667L29.5301 9.27382L16.0586 16.8881Z" fill="#6D8295"/>
<path d="M22.9641 18.8402V19.426C22.9641 23.9505 19.3746 27.6361 14.8879 27.7908V24.112L1.4165 31.726L14.8879 39.6333V35.6536C23.7159 35.4971 30.8246 28.2919 30.8246 19.426V18.8402H22.9641Z" fill="#6D8295"/>
</g>
</g>
<defs>
<clipPath id="clip0_209_55">
<rect width="165" height="41" fill="white"/>
</clipPath>
</defs>
</svg>
