<svg width="118" height="32" viewBox="0 0 118 32" fill="none" xmlns="http://www.w3.org/2000/svg">
<g clip-path="url(#clip0_209_99)">
<mask id="mask0_209_99" style="mask-type:luminance" maskUnits="userSpaceOnUse" x="0" y="0" width="118" height="32">
<path d="M117.816 0H0.0556641V32H117.816V0Z" fill="white"/>
</mask>
<g mask="url(#mask0_209_99)">
<path d="M66.386 24.363V5.3512H69.8311V24.363H66.386Z" fill="#6D8295"/>
<path d="M37.2268 5.87708L44.5105 24.363H47.3503L54.7133 5.87708H50.9005L45.9735 18.856L41.0921 5.87708H37.2268Z" fill="#6D8295"/>
<path fill-rule="evenodd" clip-rule="evenodd" d="M55.2274 23.7581C56.2618 24.3367 57.419 24.626 58.6988 24.626C59.9782 24.626 61.1267 24.3367 62.1435 23.7581C63.1778 23.1623 63.9928 22.3644 64.5887 21.3652C65.1852 20.3484 65.4828 19.2178 65.4828 17.9732C65.4828 16.7285 65.1852 15.6153 64.5887 14.6336C63.9928 13.6344 63.1778 12.8455 62.1435 12.267C61.1267 11.6709 59.9695 11.3729 58.6726 11.3729C57.4102 11.3729 56.2618 11.6709 55.2274 12.267C54.1931 12.8455 53.3782 13.6344 52.782 14.6336C52.1859 15.6153 51.8882 16.7285 51.8882 17.9732C51.8882 19.2178 52.1859 20.3484 52.782 21.3652C53.3956 22.3644 54.2107 23.1623 55.2274 23.7581ZM60.3817 20.9971C59.8907 21.2776 59.3208 21.4181 58.6726 21.4181C58.0414 21.4181 57.4802 21.2776 56.9896 20.9971C56.4985 20.699 56.1129 20.2959 55.8324 19.7876C55.5518 19.2616 55.4117 18.6656 55.4117 17.9994C55.4117 17.3333 55.5518 16.746 55.8324 16.2376C56.1129 15.7293 56.4985 15.3348 56.9896 15.0543C57.4802 14.7563 58.0414 14.6073 58.6726 14.6073C59.3208 14.6073 59.8907 14.7563 60.3817 15.0543C60.8724 15.3348 61.258 15.7293 61.5386 16.2376C61.8192 16.746 61.9592 17.3333 61.9592 17.9994C61.9592 18.6656 61.8192 19.2616 61.5386 19.7876C61.2756 20.2959 60.89 20.699 60.3817 20.9971Z" fill="#6D8295"/>
<path d="M73.9873 23.916C74.8641 24.3892 75.8631 24.6259 76.985 24.6259C78.107 24.6259 79.0977 24.398 79.9566 23.9423C80.8334 23.4691 81.5079 22.8117 81.9815 21.97C82.4724 21.1287 82.7175 20.147 82.7175 19.0248V11.6621H79.2724V18.9461C79.2724 19.7351 79.0714 20.3484 78.6676 20.7869C78.2644 21.2251 77.7038 21.4443 76.985 21.4443C76.5114 21.4443 76.0999 21.3476 75.7492 21.155C75.3985 20.962 75.1354 20.6814 74.9607 20.3134C74.7847 19.9277 74.6977 19.4721 74.6977 18.9461V11.6621H71.2263V19.0248C71.2263 20.1295 71.4714 21.1025 71.963 21.9438C72.4532 22.7854 73.1284 23.4425 73.9873 23.916Z" fill="#6D8295"/>
<path d="M84.146 24.363V11.6622H87.5905V12.7642C87.8989 12.4633 88.249 12.21 88.6426 12.0041C89.3786 11.6009 90.2119 11.3993 91.1406 11.3993C92.0174 11.3993 92.8148 11.6009 93.5335 12.0041C94.1358 12.3273 94.6337 12.7674 95.0266 13.3245C95.4516 12.7823 95.9706 12.351 96.5837 12.0304C97.3556 11.6096 98.2145 11.3993 99.161 11.3993C100.108 11.3993 100.958 11.6009 101.711 12.0041C102.465 12.3898 103.061 12.9507 103.5 13.687C103.938 14.4233 104.158 15.2998 104.158 16.3166V24.363H100.712V16.8688C100.712 16.1325 100.476 15.5628 100.002 15.1595C99.5463 14.7388 98.9767 14.5284 98.2932 14.5284C97.8548 14.5284 97.4426 14.6249 97.0574 14.8177C96.6894 14.993 96.4001 15.256 96.1895 15.6066C95.979 15.9572 95.874 16.378 95.874 16.8688V24.363H92.4289V16.8688C92.4289 16.1325 92.1921 15.5628 91.7191 15.1595C91.2634 14.7388 90.6938 14.5284 90.0097 14.5284C89.554 14.5284 89.1418 14.6249 88.7738 14.8177C88.4058 14.993 88.1166 15.256 87.9066 15.6066C87.6961 15.9572 87.5905 16.378 87.5905 16.8688V24.363H84.146Z" fill="#6D8295"/>
<path fill-rule="evenodd" clip-rule="evenodd" d="M108.159 23.7843C109.193 24.3455 110.376 24.626 111.709 24.626C112.743 24.626 113.699 24.4418 114.575 24.0737C115.469 23.7055 116.223 23.1623 116.836 22.4436L114.812 20.4188C114.426 20.857 113.971 21.1901 113.444 21.4181C112.918 21.6282 112.332 21.7333 111.683 21.7333C110.964 21.7333 110.333 21.5844 109.789 21.2864C109.246 20.9708 108.825 20.5327 108.527 19.9715C108.415 19.7405 108.325 19.4938 108.258 19.2319L117.546 19.2091C117.617 18.911 117.66 18.6481 117.678 18.4202C117.713 18.1748 117.731 17.9381 117.731 17.7102C117.731 16.5006 117.459 15.4225 116.915 14.4758C116.39 13.5116 115.653 12.7578 114.707 12.2144C113.777 11.6534 112.7 11.3729 111.472 11.3729C110.227 11.3729 109.097 11.6709 108.08 12.267C107.063 12.8455 106.257 13.6344 105.661 14.6336C105.082 15.6153 104.793 16.7372 104.793 17.9994C104.793 19.2791 105.091 20.4188 105.687 21.4181C106.301 22.417 107.124 23.2061 108.159 23.7843ZM108.261 16.6543C108.323 16.4219 108.403 16.2041 108.5 16.001C108.781 15.44 109.176 15.0105 109.684 14.7125C110.192 14.3969 110.788 14.2392 111.472 14.2392C112.121 14.2392 112.664 14.3794 113.103 14.6599C113.558 14.9229 113.9 15.3085 114.128 15.8169C114.246 16.0617 114.34 16.3348 114.41 16.6365L108.261 16.6543Z" fill="#6D8295"/>
<path fill-rule="evenodd" clip-rule="evenodd" d="M16.0555 32C24.8922 32 32.0553 24.8365 32.0553 15.9999C32.0553 7.16339 24.8922 0 16.0555 0C7.21906 0 0.0556641 7.16339 0.0556641 15.9999C0.0556641 24.8365 7.21906 32 16.0555 32ZM22.682 6.20673C22.872 6.36733 22.9812 6.60339 22.9812 6.8521L22.9808 10.0666L22.9812 10.2781L22.9808 10.3034V21.0641C22.9808 22.9328 21.4658 24.4475 19.597 24.4475C17.7282 24.4475 16.2134 22.9328 16.2134 21.0641C16.2134 19.1949 17.7282 17.6801 19.597 17.6801C20.2134 17.6801 20.7912 17.8449 21.2888 18.1328V11.2767L12.8294 12.6869V22.7558C12.8294 24.6245 11.3145 26.1396 9.44568 26.1396C7.57688 26.1396 6.06201 24.6245 6.06201 22.7558C6.06201 20.887 7.57688 19.372 9.44568 19.372C10.062 19.372 10.6401 19.5368 11.1375 19.8246L11.1379 11.97L11.1375 11.7585L11.1379 11.7332V8.54394C11.1379 8.13056 11.4368 7.7776 11.845 7.70957L21.996 6.01769C22.2412 5.97681 22.4921 6.04597 22.682 6.20673Z" fill="#6D8295"/>
</g>
</g>
<defs>
<clipPath id="clip0_209_99">
<rect width="118" height="32" fill="white"/>
</clipPath>
</defs>
</svg>
