<svg width="136" height="28" viewBox="0 0 136 28" fill="none" xmlns="http://www.w3.org/2000/svg">
<g clip-path="url(#clip0_209_156)">
<mask id="mask0_209_156" style="mask-type:luminance" maskUnits="userSpaceOnUse" x="0" y="0" width="136" height="28">
<path d="M135.656 0H0.555664V28H135.656V0Z" fill="white"/>
</mask>
<g mask="url(#mask0_209_156)">
<path d="M5.82363 0H1.02233C0.764591 0 0.555664 0.208927 0.555664 0.466667V9.51391L5.82363 0Z" fill="#6D8295"/>
<path d="M0.555664 12.424C0.570831 12.4246 0.586137 12.4249 0.601584 12.4249H7.92162C8.49457 12.4249 8.94481 12.9144 8.89595 13.4843L8.26252 20.8715C8.1725 21.9213 9.58209 22.3491 10.0927 21.427L17.6989 7.69006C18.0591 7.03948 17.5877 6.24171 16.8431 6.24171H9.52301C8.95006 6.24171 8.49989 5.75223 8.54875 5.18238L8.99311 0H16.3799C23.1868 0 26.2382 8.5617 20.9736 12.8899L16.8582 16.2734C16.5887 16.495 16.5356 16.8879 16.7366 17.1735L23.8382 27.2645C24.0561 27.5739 23.8349 28 23.4567 28H1.02233C0.764591 28 0.555664 27.7909 0.555664 27.5333V12.424Z" fill="#6D8295"/>
<path d="M80.5216 15.1575V22.2327H84.4297V14.2891C84.4297 13.3526 84.226 12.5352 83.8172 11.837C83.4252 11.1218 82.8638 10.5683 82.1316 10.1768C81.3987 9.76803 80.5475 9.5637 79.5766 9.5637C78.6232 9.5637 77.7804 9.76803 77.0482 10.1768C76.8536 10.2808 76.6709 10.397 76.4994 10.525C76.4063 10.5941 76.3174 10.6668 76.2306 10.7429V4.19995H72.3232V22.2327H76.2306V15.1575C76.2306 14.7319 76.3244 14.3572 76.512 14.0337C76.6996 13.693 76.9544 13.4376 77.2778 13.2674C77.6019 13.0801 77.9764 12.9864 78.402 12.9864C79.0152 12.9864 79.5178 13.1908 79.9091 13.5993C80.3179 13.9911 80.5216 14.5104 80.5216 15.1575Z" fill="#6D8295"/>
<path fill-rule="evenodd" clip-rule="evenodd" d="M37.1024 14.8V22.2327H33.0928V4.19995H40.4484C41.6408 4.19995 42.688 4.42988 43.5905 4.88945C44.4926 5.33222 45.1996 5.95382 45.7106 6.75406C46.2211 7.55435 46.4764 8.47401 46.4764 9.5126C46.4764 10.5683 46.2211 11.4964 45.7106 12.2966C45.1996 13.0801 44.4846 13.693 43.5648 14.1358C43.052 14.3828 42.4887 14.5609 41.875 14.6701L47.6519 22.2327H42.9008L37.5224 14.8H37.1024ZM37.1024 11.837H39.9636C40.7639 11.837 41.3771 11.6326 41.8027 11.2239C42.2451 10.8153 42.4668 10.2618 42.4668 9.5637C42.4668 8.91676 42.254 8.38035 41.8279 7.95468C41.4023 7.5288 40.7896 7.316 39.9892 7.316H37.1024V11.837Z" fill="#6D8295"/>
<path fill-rule="evenodd" clip-rule="evenodd" d="M50.2303 21.6964C51.2864 22.2412 52.4866 22.5138 53.8316 22.5138C54.8708 22.5138 55.8242 22.3348 56.6927 21.9773C57.5607 21.6196 58.3018 21.0832 58.915 20.3681L56.7692 18.2225C56.3945 18.6482 55.9605 18.9718 55.4663 19.1932C54.9726 19.3974 54.4196 19.4998 53.8059 19.4998C53.1423 19.4998 52.5632 19.3635 52.0694 19.091C51.5925 18.8016 51.2182 18.4014 50.9457 17.8905C50.8598 17.7133 50.7889 17.5246 50.732 17.3243L59.6299 17.3031C59.698 16.9796 59.7405 16.6986 59.7573 16.4603C59.7694 16.3712 59.7788 16.2843 59.7867 16.1993C59.7909 16.1572 59.7937 16.1158 59.7965 16.0747C59.8007 16.013 59.804 15.9524 59.8058 15.8929L59.8077 15.8272L59.8086 15.745C59.8086 14.5359 59.5366 13.4632 58.9915 12.5266C58.4637 11.5901 57.7315 10.858 56.7949 10.33C55.8583 9.80232 54.7766 9.53821 53.5511 9.53821C52.2906 9.53821 51.1585 9.81912 50.1538 10.3811C49.149 10.943 48.3487 11.7179 47.7528 12.7055C47.1736 13.676 46.8843 14.783 46.8843 16.0259C46.8843 17.2689 47.1825 18.3843 47.778 19.3719C48.3744 20.3594 49.192 21.1345 50.2303 21.6964ZM50.7329 14.6417C50.752 14.5751 50.7726 14.51 50.7945 14.4462C50.8318 14.3386 50.8734 14.2349 50.92 14.1358C51.1758 13.6249 51.5248 13.2332 51.9672 12.9609C52.4269 12.6713 52.9636 12.5266 53.5763 12.5266C54.155 12.5266 54.6403 12.6545 55.0323 12.9099L55.085 12.9413L55.1373 12.9749C55.1816 13.0043 55.2241 13.0352 55.2656 13.0676C55.3062 13.0992 55.3459 13.1325 55.3842 13.1671C55.6217 13.3823 55.8107 13.6541 55.9516 13.9827C56.0375 14.175 56.1066 14.3894 56.1593 14.6262L50.7329 14.6417Z" fill="#6D8295"/>
<path d="M66.6763 22.5138C65.3986 22.5138 64.2408 22.2328 63.202 21.6708C62.1636 21.1089 61.3465 20.334 60.7501 19.3464C60.1542 18.3588 59.856 17.2519 59.856 16.0259C59.856 14.783 60.1542 13.676 60.7501 12.7055C61.3633 11.7179 62.1888 10.943 63.2276 10.3811C64.2664 9.81912 65.4326 9.53821 66.7272 9.53821C67.6974 9.53821 68.5826 9.70866 69.3834 10.0491C69.7913 10.2106 70.1763 10.4145 70.5375 10.6609C70.8994 10.9081 71.2389 11.198 71.5546 11.5306L69.0512 14.0337C68.7618 13.7101 68.4212 13.4719 68.0296 13.3185C67.8528 13.2462 67.6633 13.1911 67.4598 13.1528C67.367 13.1353 67.2718 13.1214 67.1738 13.1111C67.0725 13.1004 66.9684 13.0936 66.8611 13.0906C66.8168 13.0892 66.7724 13.0885 66.7272 13.0885C66.589 13.0885 66.4546 13.0963 66.324 13.1116L66.2535 13.1207L66.2096 13.127C66.1644 13.1341 66.1191 13.1423 66.0743 13.1513C65.7682 13.2127 65.4835 13.3196 65.2198 13.4719C64.7942 13.7101 64.454 14.0506 64.1983 14.4933C63.9598 14.9192 63.8404 15.4214 63.8404 16.0004C63.8404 16.5794 63.9598 17.0903 64.1983 17.5328C64.454 17.9755 64.8031 18.3247 65.2455 18.5801C65.6879 18.8355 66.1821 18.9634 66.7272 18.9634C67.2382 18.9634 67.689 18.8781 68.0805 18.7079C68.4893 18.5206 68.8384 18.2652 69.1277 17.9416L71.6057 20.4447C70.9582 21.1258 70.2262 21.6451 69.4091 22.0028C68.5915 22.3432 67.6806 22.5138 66.6763 22.5138Z" fill="#6D8295"/>
<path fill-rule="evenodd" clip-rule="evenodd" d="M91.1028 22.4882C89.9625 22.4882 88.9405 22.2072 88.0382 21.645C87.1527 21.0831 86.4464 20.317 85.9186 19.3464C85.4076 18.3759 85.1514 17.2689 85.1514 16.0259C85.1514 14.7829 85.4076 13.6759 85.9186 12.7055C86.4464 11.7348 87.1527 10.9687 88.0382 10.4065C88.9405 9.84463 89.9625 9.56372 91.1028 9.56372C91.9372 9.56372 92.6869 9.72542 93.3512 10.049C93.7978 10.2612 94.1891 10.5282 94.5258 10.85V9.81908H98.3569V22.2327H94.5258V21.2269C94.2955 21.4445 94.0372 21.6373 93.7502 21.8053C93.6984 21.836 93.6445 21.8661 93.5899 21.8953C93.5206 21.9324 93.4492 21.9681 93.3764 22.0028C92.6953 22.3264 91.9372 22.4882 91.1028 22.4882ZM91.8952 18.9633C92.7296 18.9633 93.4016 18.6908 93.9126 18.146C94.4236 17.584 94.6791 16.8772 94.6791 16.0259C94.6791 15.7363 94.649 15.4637 94.5895 15.2084C94.53 14.9529 94.4404 14.7145 94.3214 14.4933C94.1002 14.0506 93.7768 13.7101 93.3512 13.4718C93.1209 13.328 92.8696 13.2248 92.5966 13.1619C92.3838 13.1129 92.1591 13.0885 91.9204 13.0885C91.6488 13.0885 91.3912 13.1204 91.149 13.1843C91.0006 13.2232 90.8578 13.274 90.7213 13.3367C90.6338 13.3768 90.5484 13.4218 90.4644 13.4718C90.0556 13.7101 89.7238 14.0506 89.4683 14.4933C89.2303 14.9361 89.1113 15.4469 89.1113 16.0259C89.1113 16.5878 89.2303 17.0903 89.4683 17.5328C89.707 17.9755 90.0388 18.3246 90.4644 18.5801C90.89 18.8355 91.3674 18.9633 91.8952 18.9633Z" fill="#6D8295"/>
<path d="M103.995 9.81908H100.086V22.2327H103.995V15.4129C103.995 14.6125 104.182 14.0166 104.557 13.6249C104.949 13.2163 105.468 13.0119 106.115 13.0119C106.438 13.0119 106.728 13.063 106.984 13.1653C107.238 13.2674 107.452 13.412 107.622 13.5994L109.946 10.662C109.606 10.2874 109.205 10.0151 108.745 9.84463C108.303 9.65731 107.784 9.56372 107.187 9.56372C105.825 9.56372 104.761 9.96405 103.995 10.7643V9.81908Z" fill="#6D8295"/>
<path fill-rule="evenodd" clip-rule="evenodd" d="M114.878 27.8007C113.516 27.8007 112.316 27.5623 111.277 27.0858C110.255 26.6261 109.446 25.9705 108.851 25.1188L111.251 22.7178C111.694 23.2458 112.188 23.646 112.733 23.9185C113.294 24.1906 113.967 24.3269 114.75 24.3269C115.721 24.3269 116.479 24.0889 117.024 23.6119C117.585 23.135 117.867 22.4624 117.867 21.594V20.8099C117.601 21.0227 117.302 21.2073 116.973 21.3641C116.292 21.6876 115.534 21.8494 114.7 21.8494C113.558 21.8494 112.545 21.5771 111.66 21.0321C110.774 20.4873 110.076 19.7465 109.565 18.8099C109.054 17.8734 108.799 16.8348 108.799 15.6939C108.799 14.5359 109.054 13.4973 109.565 12.5776C110.076 11.6411 110.774 10.909 111.66 10.381C112.545 9.83616 113.558 9.56372 114.7 9.56372C115.551 9.56372 116.308 9.72542 116.973 10.049C117.034 10.0764 117.094 10.1048 117.153 10.1345C117.442 10.2808 117.706 10.4537 117.944 10.6533V9.81908H121.775V21.4919C121.775 22.7691 121.477 23.8761 120.881 24.8122C120.284 25.7488 119.468 26.481 118.429 27.0088C117.389 27.5371 116.206 27.8007 114.878 27.8007ZM115.44 18.3759C115.985 18.3759 116.453 18.2565 116.845 18.0182C116.945 17.9596 117.039 17.8962 117.127 17.8283C117.398 17.6203 117.61 17.3685 117.764 17.0732C117.83 16.9515 117.886 16.8255 117.932 16.6949C117.993 16.5256 118.036 16.3485 118.063 16.164C118.086 16.0125 118.096 15.8557 118.096 15.6939C118.096 15.183 117.986 14.7232 117.764 14.3146C117.56 13.9058 117.253 13.5823 116.845 13.3439C116.453 13.1056 115.985 12.9864 115.44 12.9864C115.279 12.9864 115.124 12.9976 114.974 13.0197L114.896 13.0325L114.827 13.0452C114.679 13.0751 114.536 13.1163 114.399 13.1689C114.323 13.1983 114.248 13.2314 114.176 13.2678C114.128 13.2918 114.082 13.317 114.036 13.3439C113.627 13.5823 113.312 13.9058 113.091 14.3146C112.975 14.5275 112.89 14.7542 112.834 14.9948C112.783 15.2161 112.758 15.4492 112.758 15.6939C112.758 16.1706 112.869 16.6218 113.091 17.0477C113.312 17.4562 113.618 17.7798 114.01 18.0182C114.229 18.1462 114.469 18.2401 114.728 18.2993C114.95 18.3504 115.188 18.3759 115.44 18.3759Z" fill="#6D8295"/>
<path fill-rule="evenodd" clip-rule="evenodd" d="M126.04 21.6964C127.095 22.2412 128.296 22.5138 129.641 22.5138C130.679 22.5138 131.634 22.3348 132.502 21.9773C133.37 21.6196 134.111 21.0832 134.724 20.3681L132.578 18.2225C132.204 18.6482 131.77 18.9718 131.276 19.1932C130.782 19.3974 130.229 19.4998 129.615 19.4998C128.952 19.4998 128.372 19.3635 127.879 19.091C127.538 18.8845 127.25 18.6215 127.014 18.3021C126.976 18.2513 126.94 18.1989 126.905 18.1451C126.852 18.0637 126.801 17.9787 126.755 17.8905C126.669 17.7133 126.598 17.5246 126.541 17.3243L135.439 17.3031C135.473 17.1434 135.5 16.9939 135.521 16.855C135.543 16.7123 135.558 16.5808 135.567 16.4603C135.579 16.3703 135.589 16.2823 135.596 16.1966C135.61 16.0389 135.618 15.8883 135.618 15.745C135.618 14.5359 135.346 13.4632 134.801 12.5266C134.273 11.5901 133.541 10.858 132.604 10.33C131.667 9.80232 130.586 9.53821 129.361 9.53821C128.101 9.53821 126.968 9.81912 125.963 10.3811C124.958 10.943 124.158 11.7179 123.562 12.7055C122.984 13.676 122.694 14.783 122.694 16.0259C122.694 17.2689 122.991 18.3843 123.588 19.3719C124.183 20.3594 125.001 21.1345 126.04 21.6964ZM126.542 14.6417C126.594 14.4626 126.656 14.2937 126.729 14.1358C126.876 13.8441 127.051 13.5914 127.258 13.3777C127.331 13.3027 127.407 13.2326 127.487 13.1671C127.578 13.0922 127.675 13.0234 127.777 12.9609C128.236 12.6713 128.773 12.5266 129.386 12.5266C129.965 12.5266 130.45 12.6545 130.842 12.9099C130.998 13.001 131.139 13.1095 131.265 13.2355C131.469 13.439 131.635 13.688 131.761 13.9827C131.846 14.175 131.916 14.3894 131.969 14.6262L126.542 14.6417Z" fill="#6D8295"/>
</g>
</g>
<defs>
<clipPath id="clip0_209_156">
<rect width="136" height="28" fill="white"/>
</clipPath>
</defs>
</svg>
