<svg width="143" height="30" viewBox="0 0 143 30" fill="none" xmlns="http://www.w3.org/2000/svg">
<g clip-path="url(#clip0_209_139)">
<mask id="mask0_209_139" style="mask-type:luminance" maskUnits="userSpaceOnUse" x="0" y="0" width="143" height="30">
<path d="M142.956 0H0.455566V30H142.956V0Z" fill="white"/>
</mask>
<g mask="url(#mask0_209_139)">
<path d="M0.455566 20.02L10.5996 15.505L16.4383 18.8912L17.6178 29.9999L10.4227 29.9408L11.4842 22.2181L10.2457 21.5048L4.17109 26.2575L0.455566 20.02Z" fill="#6D8295"/>
<path d="M17.0874 18.4156L26.052 25.0098L29.5906 18.6533L22.3952 15.7424V14.3166L29.5906 11.3463L26.052 5.04932L17.0874 11.6433V18.4156Z" fill="#6D8295"/>
<path d="M16.4383 11.1089L17.6178 0L10.4227 0.118819L11.4842 7.84156L10.2457 8.55444L4.11212 3.80199L0.455566 9.98019L10.5996 14.495L16.4383 11.1089Z" fill="#6D8295"/>
<path d="M53.5952 13.6687V24.0763H57.4676V10.8129H51.8281V13.6687H53.5952Z" fill="#6D8295"/>
<path d="M53.4739 8.9492C53.8289 9.3202 54.3694 9.50577 55.0955 9.50577C55.8219 9.50577 56.354 9.3202 56.6926 8.9492C57.0481 8.56177 57.2251 8.0777 57.2251 7.49702C57.2251 6.89989 57.0481 6.41583 56.6926 6.0448C56.354 5.65757 55.8219 5.46387 55.0955 5.46387C54.3694 5.46387 53.8289 5.65757 53.4739 6.0448C53.1353 6.41583 52.9658 6.89989 52.9658 7.49702C52.9658 8.0777 53.1353 8.56177 53.4739 8.9492Z" fill="#6D8295"/>
<path d="M40.1142 23.7856C41.2112 24.2858 42.5585 24.536 44.1556 24.536C45.6564 24.536 46.947 24.3021 48.0284 23.834C49.1094 23.3663 49.9402 22.7126 50.521 21.8738C51.1184 21.0183 51.4166 20.026 51.4166 18.8966C51.4166 17.7994 51.1347 16.8716 50.5699 16.1131C50.0209 15.3387 49.2549 14.7336 48.2702 14.2981C47.286 13.8462 46.1486 13.5638 44.8577 13.451L43.5024 13.33C42.6956 13.2653 42.1147 13.0476 41.7597 12.6764C41.4047 12.3053 41.2272 11.8696 41.2272 11.3696C41.2272 10.9821 41.3243 10.6273 41.5174 10.3046C41.7113 9.96563 42.0015 9.69944 42.389 9.50576C42.7924 9.31226 43.2845 9.21538 43.8654 9.21538C44.4782 9.21538 44.9868 9.32819 45.3902 9.55426C45.4789 9.60201 45.5633 9.65307 45.6424 9.70726L45.6616 9.72069C45.6912 9.74113 45.7204 9.76238 45.7488 9.78382C45.9939 9.97113 46.189 10.1931 46.3341 10.4497C46.5436 10.8048 46.6491 11.2 46.6491 11.6357H50.521C50.521 10.4739 50.2548 9.46544 49.7227 8.61032C49.1902 7.73901 48.4238 7.06938 47.4235 6.60132C46.4388 6.11727 45.2531 5.87524 43.8654 5.87524C42.5421 5.87524 41.3967 6.10128 40.4284 6.55301C39.4605 6.98876 38.7021 7.61801 38.1536 8.44076C37.6207 9.26376 37.3544 10.2401 37.3544 11.3696C37.3544 12.9346 37.8794 14.1931 38.928 15.1453C39.9766 16.0972 41.3807 16.6458 43.1394 16.7909L44.4707 16.9119C45.5513 17.0088 46.3341 17.2267 46.8182 17.5654C47.302 17.8881 47.5442 18.3318 47.5442 18.8966C47.5442 19.1561 47.5019 19.3996 47.4167 19.627C47.3536 19.7958 47.2672 19.9556 47.1572 20.1068C46.8986 20.4458 46.5196 20.7116 46.0194 20.9056C45.5193 21.0991 44.898 21.1958 44.1556 21.1958C43.3329 21.1958 42.6632 21.0831 42.1471 20.8572C41.6305 20.6149 41.2435 20.3003 40.9849 19.9133C40.743 19.5258 40.6223 19.1064 40.6223 18.6545H36.7739C36.7739 19.8001 37.0562 20.8168 37.6207 21.7043C38.1856 22.5754 39.0167 23.2695 40.1142 23.7856Z" fill="#6D8295"/>
<path d="M66.1076 24.2455C64.7683 24.2455 63.6876 24.0843 62.8648 23.7613C62.0416 23.4227 61.4367 22.8662 61.0493 22.0918C60.6783 21.301 60.4928 20.236 60.4928 18.8966V13.6446H58.4839V10.8129H60.4928V7.23083H64.0989V10.8129H67.9714V13.6446H64.0989V19.042C64.0989 19.6713 64.2601 20.1552 64.5833 20.4938C64.9214 20.8169 65.3976 20.978 66.0114 20.978H67.9714V24.2455H66.1076Z" fill="#6D8295"/>
<path fill-rule="evenodd" clip-rule="evenodd" d="M72.6337 23.9552C73.5049 24.3425 74.5056 24.536 75.6349 24.536C76.7481 24.536 77.7324 24.3425 78.5881 23.9552C79.4431 23.5678 80.1531 23.0272 80.7174 22.3336C81.2824 21.6396 81.6618 20.8492 81.8549 19.9617H78.2974C78.1362 20.365 77.8293 20.7037 77.3774 20.9779C76.9262 21.2526 76.3449 21.3897 75.6349 21.3897C75.1956 21.3897 74.8024 21.3377 74.4562 21.2334C74.1924 21.1542 73.9562 21.0451 73.7474 20.9056C73.2631 20.583 72.9081 20.1308 72.6824 19.5502C72.6193 19.3848 72.5656 19.2117 72.5206 19.0315C72.4749 18.8488 72.4374 18.6588 72.4093 18.461H82.0974V17.154C82.0974 15.9438 81.8387 14.8305 81.3231 13.8141C80.8062 12.7812 80.0562 11.9503 79.0718 11.321C78.1037 10.6756 76.9093 10.3529 75.4893 10.3529C74.4087 10.3529 73.4399 10.5466 72.5849 10.9338C71.7468 11.3048 71.0449 11.8131 70.4799 12.4585C69.9149 13.1039 69.4793 13.8382 69.1724 14.6612C68.8824 15.4678 68.7368 16.3148 68.7368 17.2023V17.6864C68.7368 18.5417 68.8824 19.3807 69.1724 20.2035C69.4793 21.0103 69.9149 21.7443 70.4799 22.406C71.0606 23.0517 71.7781 23.5678 72.6337 23.9552ZM72.4762 16.0678C72.4868 16.0165 72.4981 15.966 72.5106 15.9163C72.5443 15.7795 72.5831 15.6484 72.6268 15.5232C72.6518 15.4518 72.6781 15.3822 72.7068 15.3146C72.9487 14.7175 73.3037 14.2658 73.7712 13.9592C73.9462 13.8447 74.1356 13.7515 74.3393 13.6798C74.6818 13.5596 75.0656 13.4993 75.4893 13.4993C76.1518 13.4993 76.6999 13.6527 77.1356 13.9592C77.5874 14.2496 77.9262 14.6772 78.1518 15.2419C78.1706 15.2875 78.1874 15.3339 78.2043 15.3808C78.2312 15.4557 78.2562 15.5325 78.2793 15.6112C78.3131 15.7283 78.3431 15.8495 78.3693 15.9748C78.3887 16.0672 78.4049 16.1617 78.4199 16.2586H72.4393C72.4506 16.1938 72.4624 16.1303 72.4762 16.0678Z" fill="#6D8295"/>
<path d="M83.6948 24.0764V10.8129H86.7692V14.1534C86.8105 13.9549 86.8579 13.7642 86.9111 13.5815C86.9567 13.4276 87.0054 13.2791 87.0592 13.1364C87.3986 12.2327 87.9067 11.5552 88.5842 11.1032C89.2617 10.6354 90.0923 10.4015 91.0773 10.4015H91.2461C92.2467 10.4015 93.0779 10.6354 93.7392 11.1032C94.4167 11.5552 94.9255 12.2327 95.2642 13.1364L95.2911 13.2046L95.3136 13.2669C95.3292 13.2229 95.3448 13.1794 95.3611 13.1364C95.7161 12.2327 96.2323 11.5552 96.9098 11.1032C97.5879 10.6354 98.4186 10.4015 99.4029 10.4015H99.5729C100.572 10.4015 101.412 10.6354 102.089 11.1032C102.784 11.5552 103.308 12.2327 103.662 13.1364C104.017 14.04 104.195 15.1696 104.195 16.5249V24.0764H100.323V16.307C100.323 15.5809 100.129 14.992 99.7417 14.5402C99.3711 14.0884 98.8379 13.8625 98.1448 13.8625C97.4504 13.8625 96.9023 14.0966 96.4986 14.5644C96.0955 15.0161 95.8936 15.6212 95.8936 16.3797V24.0764H91.9967V16.307C91.9967 15.5809 91.803 14.992 91.4161 14.5402C91.0448 14.0884 90.5205 13.8625 89.843 13.8625C89.1323 13.8625 88.5761 14.0966 88.173 14.5644C87.7692 15.0161 87.5673 15.6212 87.5673 16.3797V24.0764H83.6948Z" fill="#6D8295"/>
<path fill-rule="evenodd" clip-rule="evenodd" d="M114.54 21.5205V24.0763H117.613V15.9439C117.613 14.7176 117.371 13.7173 116.887 12.9427C116.403 12.152 115.694 11.5631 114.757 11.1759C113.838 10.7887 112.7 10.595 111.345 10.595C111.051 10.595 110.744 10.5981 110.425 10.6045C110.236 10.6084 110.042 10.6133 109.844 10.6192C109.312 10.6353 108.795 10.6595 108.295 10.6918L107.913 10.7176C107.717 10.7312 107.532 10.7447 107.359 10.7583C107.229 10.7684 107.105 10.7786 106.989 10.7887V14.0562C107.489 14.0238 108.045 13.9915 108.659 13.9593C108.83 13.9503 109 13.942 109.169 13.9342C109.412 13.9229 109.652 13.9131 109.89 13.9046C110.079 13.8977 110.265 13.8917 110.449 13.8866C111.03 13.8704 111.498 13.8625 111.853 13.8625C112.563 13.8625 113.079 14.0318 113.402 14.3707C113.725 14.7096 113.886 15.2178 113.886 15.8956V15.9439H111.49C110.312 15.9439 109.272 16.0973 108.367 16.4038C107.464 16.6942 106.762 17.1541 106.262 17.7833C105.762 18.3966 105.512 19.1872 105.512 20.1552C105.512 21.0428 105.714 21.8092 106.117 22.4548C106.52 23.0841 107.077 23.5678 107.787 23.9068C108.513 24.2455 109.352 24.415 110.304 24.415C111.224 24.415 111.998 24.2455 112.628 23.9068C113.273 23.5678 113.773 23.0841 114.128 22.4548C114.19 22.3485 114.249 22.2385 114.304 22.1242C114.38 21.9627 114.449 21.7928 114.509 21.6145L114.54 21.5205ZM113.886 19.163V18.0981H111.465C110.788 18.0981 110.264 18.2674 109.893 18.6063C109.538 18.929 109.36 19.3727 109.36 19.9373C109.36 20.2032 109.404 20.4451 109.492 20.6625C109.582 20.8808 109.715 21.0747 109.893 21.2447C110.264 21.5673 110.788 21.7284 111.465 21.7284C111.595 21.7284 111.719 21.722 111.84 21.7096C111.938 21.6992 112.034 21.6844 112.126 21.6657C112.304 21.6297 112.471 21.5781 112.628 21.5105C112.983 21.3494 113.273 21.0832 113.499 20.7117C113.725 20.3407 113.854 19.8246 113.886 19.163Z" fill="#6D8295"/>
<path d="M119.931 24.0764V10.8129H123.005V15.1907C123.152 13.941 123.523 12.9333 124.118 12.1682C124.925 11.1517 126.086 10.6436 127.604 10.6436H128.112V13.9835H127.144C126.079 13.9835 125.256 14.2739 124.675 14.8547C124.094 15.4195 123.803 16.2425 123.803 17.3235V24.0764H119.931Z" fill="#6D8295"/>
<path d="M133.022 17.8801H134.305L138.492 24.0763H142.849L137.539 16.4667L141.905 10.8128H137.839L133.022 17.1193V6.40784H129.15V24.0763H133.022V17.8801Z" fill="#6D8295"/>
</g>
</g>
<defs>
<clipPath id="clip0_209_139">
<rect width="143" height="30" fill="white"/>
</clipPath>
</defs>
</svg>
