<svg width="168" height="24" viewBox="0 0 168 24" fill="none" xmlns="http://www.w3.org/2000/svg">
<g clip-path="url(#clip0_209_111)">
<mask id="mask0_209_111" style="mask-type:luminance" maskUnits="userSpaceOnUse" x="0" y="0" width="168" height="24">
<path d="M168 0H0V24H168V0Z" fill="white"/>
</mask>
<g mask="url(#mask0_209_111)">
<path d="M31.2549 22.0844V0.65686H35.173L45.2439 15.748V0.65686H49.1619V22.0844H45.2439L35.173 7.02387V22.0844H31.2549Z" fill="#6D8295"/>
<path d="M59.0709 22.4519C57.5402 22.4519 56.1833 22.1254 54.9997 21.4722C53.8161 20.8193 52.8876 19.9009 52.214 18.7173C51.5405 17.5337 51.2039 16.1663 51.2039 14.6154C51.2039 13.0441 51.5303 11.6462 52.1835 10.4217C52.8568 9.19735 53.7751 8.24841 54.9384 7.57495C56.1219 6.88115 57.5097 6.53418 59.1013 6.53418C60.5913 6.53418 61.9073 6.86068 63.0503 7.51375C64.1931 8.16675 65.0807 9.06468 65.7133 10.2075C66.3665 11.3299 66.6927 12.5849 66.6927 13.9726C66.6927 14.1971 66.6827 14.4317 66.6622 14.6767C66.6622 14.9215 66.6521 15.1765 66.6317 15.4419H55.0915C55.1731 16.6255 55.5811 17.5541 56.316 18.2276C57.0709 18.9009 57.9791 19.2378 59.0403 19.2378C59.8362 19.2378 60.4993 19.0641 61.0299 18.7173C61.5809 18.3499 61.9889 17.8805 62.2544 17.3092H66.2338C65.948 18.2683 65.4685 19.1457 64.7949 19.9418C64.142 20.7173 63.3259 21.3293 62.3462 21.7783C61.3871 22.2273 60.2954 22.4519 59.0709 22.4519ZM59.1013 9.71775C58.1423 9.71775 57.2953 9.99321 56.5608 10.5442C55.826 11.0748 55.3567 11.8911 55.1527 12.9931H62.7136C62.6523 11.9931 62.2849 11.1972 61.6117 10.6054C60.9381 10.0136 60.1013 9.71775 59.1013 9.71775Z" fill="#6D8295"/>
<path d="M65.9729 22.0843L71.4827 14.4928L65.9729 6.90137H70.1667L74.0234 12.2888L77.85 6.90137H82.074L76.5334 14.4928L82.074 22.0843H77.85L74.0234 16.6968L70.1667 22.0843H65.9729Z" fill="#6D8295"/>
<path d="M89.8047 22.0844C88.2127 22.0844 86.9373 21.6966 85.978 20.9211C85.0193 20.1456 84.54 18.7684 84.54 16.7886V10.1768H81.938V6.90145H84.54L84.9987 2.8302H88.458V6.90145H92.56V10.1768H88.458V16.8194C88.458 17.554 88.6107 18.0643 88.9167 18.3498C89.2433 18.6153 89.7947 18.7477 90.57 18.7477H92.468V22.0844H89.8047Z" fill="#6D8295"/>
<path d="M94.3933 22.0844V6.90148H97.8527L98.1886 8.95241C98.6786 8.21775 99.322 7.63621 100.117 7.20761C100.934 6.75868 101.873 6.53418 102.934 6.53418C105.281 6.53418 106.943 7.44235 107.923 9.25855C108.474 8.42181 109.209 7.75861 110.127 7.26888C111.066 6.77908 112.086 6.53418 113.188 6.53418C115.168 6.53418 116.688 7.12601 117.749 8.30961C118.81 9.49321 119.341 11.2278 119.341 13.5134V22.0844H115.423V13.8808C115.423 12.5747 115.168 11.5747 114.657 10.8809C114.168 10.1871 113.403 9.84015 112.362 9.84015C111.301 9.84015 110.443 10.2279 109.791 11.0033C109.158 11.7788 108.841 12.8604 108.841 14.2481V22.0844H104.923V13.8808C104.923 12.5747 104.668 11.5747 104.158 10.8809C103.648 10.1871 102.862 9.84015 101.801 9.84015C100.76 9.84015 99.9133 10.2279 99.2607 11.0033C98.628 11.7788 98.3113 12.8604 98.3113 14.2481V22.0844H94.3933Z" fill="#6D8295"/>
<path d="M128.816 22.4519C127.347 22.4519 126.02 22.1149 124.837 21.4417C123.673 20.7681 122.745 19.8396 122.051 18.656C121.377 17.4521 121.041 16.0644 121.041 14.493C121.041 12.9216 121.387 11.5441 122.081 10.3605C122.775 9.15655 123.704 8.21775 124.867 7.54435C126.051 6.87095 127.377 6.53418 128.847 6.53418C130.295 6.53418 131.601 6.87095 132.765 7.54435C133.948 8.21775 134.877 9.15655 135.55 10.3605C136.244 11.5441 136.591 12.9216 136.591 14.493C136.591 16.0644 136.244 17.4521 135.55 18.656C134.877 19.8396 133.948 20.7681 132.765 21.4417C131.581 22.1149 130.265 22.4519 128.816 22.4519ZM128.816 19.0539C129.836 19.0539 130.724 18.6763 131.479 17.9215C132.234 17.146 132.611 16.0031 132.611 14.493C132.611 12.9829 132.234 11.8503 131.479 11.0952C130.724 10.3197 129.847 9.93201 128.847 9.93201C127.806 9.93201 126.907 10.3197 126.153 11.0952C125.418 11.8503 125.051 12.9829 125.051 14.493C125.051 16.0031 125.418 17.146 126.153 17.9215C126.907 18.6763 127.795 19.0539 128.816 19.0539Z" fill="#6D8295"/>
<path d="M141.918 22.0843L136.347 6.90137H140.449L144.306 18.3806L148.163 6.90137H152.265L146.663 22.0843H141.918Z" fill="#6D8295"/>
<path d="M159.835 22.4519C158.305 22.4519 156.947 22.1254 155.764 21.4722C154.581 20.8193 153.652 19.9009 152.979 18.7173C152.305 17.5337 151.968 16.1663 151.968 14.6154C151.968 13.0441 152.295 11.6462 152.948 10.4217C153.621 9.19735 154.539 8.24841 155.703 7.57495C156.886 6.88115 158.274 6.53418 159.866 6.53418C161.356 6.53418 162.672 6.86068 163.815 7.51375C164.957 8.16675 165.845 9.06468 166.478 10.2075C167.131 11.3299 167.457 12.5849 167.457 13.9726C167.457 14.1971 167.447 14.4317 167.427 14.6767C167.427 14.9215 167.417 15.1765 167.396 15.4419H155.856C155.937 16.6255 156.346 17.5541 157.081 18.2276C157.835 18.9009 158.743 19.2378 159.805 19.2378C160.601 19.2378 161.264 19.0641 161.794 18.7173C162.345 18.3499 162.753 17.8805 163.019 17.3092H166.998C166.713 18.2683 166.233 19.1457 165.559 19.9418C164.907 20.7173 164.09 21.3293 163.111 21.7783C162.151 22.2273 161.06 22.4519 159.835 22.4519ZM159.866 9.71775C158.907 9.71775 158.06 9.99321 157.325 10.5442C156.591 11.0748 156.121 11.8911 155.917 12.9931H163.478C163.417 11.9931 163.049 11.1972 162.376 10.6054C161.703 10.0136 160.866 9.71775 159.866 9.71775Z" fill="#6D8295"/>
<path d="M11.9341 0.240315V9.92693C11.9341 11.0325 11.0379 11.9288 9.93233 11.9288H0.245705V7.92507H5.09399L0 2.83106L2.83106 0L7.93047 5.09941V0.240315H11.9341Z" fill="#6D8295"/>
<path d="M23.7596 12.066H14.0729C12.9673 12.066 12.071 12.9622 12.071 14.0679V23.7545H16.0749V18.9057L21.1692 24L24.0001 21.169L18.9009 16.0698H23.7596V12.066Z" fill="#6D8295"/>
</g>
</g>
<defs>
<clipPath id="clip0_209_111">
<rect width="168" height="24" fill="white"/>
</clipPath>
</defs>
</svg>
