<svg width="144" height="26" viewBox="0 0 144 26" fill="none" xmlns="http://www.w3.org/2000/svg">
<g clip-path="url(#clip0_210_52)">
<mask id="mask0_210_52" style="mask-type:luminance" maskUnits="userSpaceOnUse" x="0" y="0" width="144" height="26">
<path d="M143.456 0H0.455566V26H143.456V0Z" fill="white"/>
</mask>
<g mask="url(#mask0_210_52)">
<path d="M46.2314 23.228C44.1731 23.228 42.3535 22.8238 40.7727 22.0149C39.1918 21.1876 37.9697 20.0208 37.1059 18.5135C36.242 17.0063 35.8101 15.2326 35.8101 13.1925C35.8101 11.1523 36.242 9.37862 37.1059 7.87146C37.9697 6.3459 39.1918 5.1788 40.7727 4.37008C42.3535 3.54297 44.1731 3.12939 46.2314 3.12939C47.6284 3.12939 48.8599 3.27646 49.9258 3.57054C51.0105 3.84625 52.0028 4.28735 52.9033 4.8939V8.89157C52.0947 8.22987 51.1667 7.75199 50.119 7.45793C49.0897 7.14541 47.9135 6.98922 46.5901 6.98922C45.3586 6.98922 44.2463 7.24655 43.2539 7.76116C42.2799 8.25743 41.508 8.97425 40.9382 9.91162C40.3684 10.849 40.0833 11.9426 40.0833 13.1925C40.0833 14.4607 40.3407 15.5727 40.8552 16.5284C41.3884 17.4659 42.1327 18.1918 43.0884 18.7065C44.0442 19.2211 45.1471 19.4784 46.3969 19.4784C47.5365 19.4784 48.5288 19.2763 49.3744 18.8719V15.15H46.259V12.0621H53.4271V21.3532C51.6076 22.6029 49.2093 23.228 46.2314 23.228Z" fill="#6D8295"/>
<path d="M54.3955 9.58085H58.4205V11.4832C58.9537 10.84 59.698 10.3529 60.6537 10.022C61.6095 9.67276 62.6941 9.49817 63.9069 9.49817V12.6687C62.6388 12.6687 61.5176 12.8617 60.5435 13.2477C59.5878 13.6337 58.9261 14.2218 58.5584 15.0122V22.8145H54.3955V9.58085Z" fill="#6D8295"/>
<path d="M71.9075 23.228C69.3706 23.228 67.3764 22.6213 65.9243 21.4085C64.4725 20.177 63.7466 18.4583 63.7466 16.2528C63.7466 14.0655 64.39 12.3378 65.6766 11.0696C66.9812 9.80138 68.8376 9.16724 71.2458 9.16724C72.826 9.16724 74.1676 9.46136 75.2706 10.0495C76.3737 10.6377 77.2102 11.4556 77.7796 12.5032C78.3497 13.5325 78.6344 14.6996 78.6344 16.0046V17.6864H67.717C68.0108 19.3774 69.5916 20.223 72.4587 20.223C73.3037 20.223 74.1773 20.1493 75.0776 20.0021C75.9785 19.8553 76.7598 19.653 77.4215 19.3957V22.3182C76.778 22.594 75.9505 22.8144 74.9398 22.9799C73.929 23.1451 72.9183 23.228 71.9075 23.228ZM74.6915 14.9845C74.6369 14.1023 74.306 13.4223 73.6996 12.9444C73.0931 12.448 72.2566 12.1999 71.1906 12.1999C70.1428 12.1999 69.3153 12.448 68.7089 12.9444C68.1024 13.4406 67.7716 14.1206 67.717 14.9845H74.6915Z" fill="#6D8295"/>
<path d="M87.1676 23.228C84.6313 23.228 82.6371 22.6213 81.185 21.4085C79.7329 20.177 79.0068 18.4583 79.0068 16.2528C79.0068 14.0655 79.6503 12.3378 80.9367 11.0696C82.2419 9.80138 84.0983 9.16724 86.5059 9.16724C88.0867 9.16724 89.4283 9.46136 90.5313 10.0495C91.6337 10.6377 92.4703 11.4556 93.0397 12.5032C93.6097 13.5325 93.8951 14.6996 93.8951 16.0046V17.6864H82.977C83.2708 19.3774 84.8516 20.223 87.7188 20.223C88.5644 20.223 89.438 20.1493 90.3383 20.0021C91.2385 19.8553 92.0198 19.653 92.6815 19.3957V22.3182C92.038 22.594 91.2112 22.8144 90.2005 22.9799C89.1891 23.1451 88.179 23.228 87.1676 23.228ZM89.9522 14.9845C89.8969 14.1023 89.5661 13.4223 88.9596 12.9444C88.3532 12.448 87.5166 12.1999 86.4513 12.1999C85.4035 12.1999 84.576 12.448 83.9696 12.9444C83.3631 13.4406 83.0323 14.1206 82.977 14.9845H89.9522Z" fill="#6D8295"/>
<path d="M94.8184 9.58077H98.8439V11.2075C99.4503 10.5274 100.167 10.0219 100.994 9.69107C101.84 9.34183 102.722 9.16724 103.641 9.16724C105.442 9.16724 106.784 9.65435 107.667 10.6284C108.567 11.5843 109.017 12.88 109.017 14.5158V22.8144H104.854V14.9845C104.854 13.2752 104.064 12.4206 102.483 12.4206C101.785 12.4206 101.132 12.5951 100.526 12.9444C99.919 13.2752 99.4042 13.7714 98.9817 14.4331V22.8144H94.8184V9.58077Z" fill="#6D8295"/>
<path d="M112.69 7.54067C112.047 7.54067 111.505 7.32929 111.064 6.90653C110.623 6.48383 110.402 5.95081 110.402 5.30749C110.402 4.6826 110.623 4.15877 111.064 3.736C111.505 3.29489 112.047 3.07434 112.69 3.07434C113.334 3.07434 113.876 3.29489 114.317 3.736C114.759 4.15877 114.979 4.6826 114.979 5.30749C114.979 5.95081 114.759 6.48383 114.317 6.90653C113.876 7.32929 113.334 7.54067 112.69 7.54067ZM110.595 9.58082H114.786V22.8145H110.595V9.58082Z" fill="#6D8295"/>
<path d="M121.886 23.228C120.893 23.228 119.827 23.1179 118.688 22.897C117.567 22.6948 116.685 22.4008 116.041 22.0149V18.7616C116.776 19.2027 117.658 19.5612 118.688 19.8369C119.718 20.1127 120.673 20.2506 121.555 20.2506C122.309 20.2506 122.86 20.1859 123.209 20.0574C123.558 19.9288 123.733 19.6898 123.733 19.3406C123.733 19.0649 123.632 18.8444 123.43 18.6789C123.228 18.4951 122.915 18.3389 122.492 18.2102C122.088 18.0631 121.408 17.8518 120.452 17.5761C119.331 17.2453 118.449 16.9145 117.806 16.5836C117.181 16.2344 116.703 15.8024 116.372 15.2878C116.059 14.7732 115.903 14.1115 115.903 13.3027C115.903 11.9242 116.445 10.8949 117.53 10.2149C118.633 9.51648 120.122 9.16724 121.996 9.16724C122.915 9.16724 123.862 9.26831 124.836 9.47053C125.828 9.65435 126.591 9.90245 127.124 10.2149V13.3855C126.591 13.0362 125.893 12.7513 125.029 12.5308C124.184 12.3102 123.356 12.1999 122.548 12.1999C121.794 12.1999 121.206 12.2735 120.784 12.4206C120.379 12.5676 120.176 12.8432 120.176 13.2476C120.176 13.5969 120.369 13.8634 120.756 14.0472C121.16 14.2309 121.905 14.4607 122.989 14.7364L123.54 14.8742C124.698 15.1867 125.599 15.5359 126.242 15.9219C126.885 16.2895 127.336 16.7398 127.593 17.2728C127.869 17.7875 128.007 18.44 128.007 19.2303C128.007 20.4434 127.483 21.4174 126.435 22.1527C125.387 22.8698 123.871 23.228 121.886 23.228Z" fill="#6D8295"/>
<path d="M128.969 2.44019H133.132V11.0972C133.757 10.4539 134.465 9.97599 135.255 9.66354C136.045 9.33269 136.891 9.16726 137.791 9.16726C139.593 9.16726 140.934 9.65437 141.817 10.6285C142.717 11.5843 143.168 12.8801 143.168 14.5159V22.8145H139.004V14.9846C139.004 13.2752 138.214 12.4206 136.634 12.4206C135.935 12.4206 135.282 12.5952 134.676 12.9444C134.07 13.2752 133.555 13.7715 133.132 14.4332V22.8145H128.969V2.44019Z" fill="#6D8295"/>
<path fill-rule="evenodd" clip-rule="evenodd" d="M21.5925 6.3411C21.5925 9.84321 18.7537 12.6822 15.2516 12.6822C11.7494 12.6822 8.91044 9.84321 8.91044 6.3411C8.91044 2.83901 11.7494 0 15.2516 0C18.7537 0 21.5925 2.83901 21.5925 6.3411ZM0.501647 12.2214C7.41011 11.7557 13.4311 16.9281 13.9919 23.8512C14.0501 24.5686 14.0473 25.2771 13.9879 25.9709C7.07939 26.4365 1.05846 21.2642 0.497621 14.3411C0.439544 13.6237 0.442309 12.9154 0.501647 12.2214ZM18.4578 25.7285C25.3809 25.1676 30.5533 19.1468 30.0876 12.2383C29.3934 12.179 28.6853 12.1763 27.9679 12.2344C21.0446 12.7951 15.8724 18.8161 16.3381 25.7244C17.0321 25.7838 17.7404 25.7867 18.4578 25.7285Z" fill="#6D8295"/>
</g>
</g>
<defs>
<clipPath id="clip0_210_52">
<rect width="144" height="26" fill="white"/>
</clipPath>
</defs>
</svg>
