<svg width="101" height="28" viewBox="0 0 101 28" fill="none" xmlns="http://www.w3.org/2000/svg">
<g clip-path="url(#clip0_209_126)">
<mask id="mask0_209_126" style="mask-type:luminance" maskUnits="userSpaceOnUse" x="0" y="0" width="101" height="28">
<path d="M100.735 0H0.455566V28H100.735V0Z" fill="white"/>
</mask>
<g mask="url(#mask0_209_126)">
<path d="M21.4164 4.33734C21.4164 6.73283 19.4745 8.67466 17.079 8.67466C14.6836 8.67466 12.7417 6.73283 12.7417 4.33734C12.7417 1.94191 14.6836 0 17.079 0C19.4745 0 21.4164 1.94191 21.4164 4.33734Z" fill="#6D8295"/>
<path d="M14.7412 23.4284C6.85147 23.4284 0.455566 17.0327 0.455566 9.14288V2.28577C8.34538 2.28577 14.7416 8.68166 14.7416 16.5715L14.7412 23.4284Z" fill="#6D8295"/>
<path d="M30.4555 6.85718C22.5658 6.85718 16.1699 13.2531 16.1699 21.1428V28C24.0599 28 30.4555 21.6039 30.4555 13.7143V6.85718Z" fill="#6D8295"/>
<path d="M56.8704 4.26196V21.4616H53.4208V10.2744L48.8128 21.4616H46.2011L41.5686 10.2744V21.4616H38.1187V4.26196H42.0366L47.507 17.0507L52.9773 4.26196H56.8704Z" fill="#6D8295"/>
<path d="M61.0455 6.18397C60.4378 6.18397 59.9283 5.99506 59.5177 5.61723C59.1234 5.22299 58.9263 4.73835 58.9263 4.16342C58.9263 3.58844 59.1234 3.11205 59.5177 2.73421C59.9283 2.33997 60.4378 2.14282 61.0455 2.14282C61.6533 2.14282 62.1543 2.33997 62.5486 2.73421C62.9591 3.11205 63.1648 3.58844 63.1648 4.16342C63.1648 4.73835 62.9591 5.22299 62.5486 5.61723C62.1543 5.99506 61.6533 6.18397 61.0455 6.18397ZM62.7457 7.81026V21.4616H59.2961V7.81026H62.7457Z" fill="#6D8295"/>
<path d="M72.7335 7.61316C74.3594 7.61316 75.6735 8.13057 76.6763 9.16553C77.6777 10.184 78.1791 11.6133 78.1791 13.4531V21.4616H74.7293V13.9213C74.7293 12.837 74.4584 12.0075 73.916 11.4326C73.3742 10.8412 72.6345 10.5455 71.6981 10.5455C70.7455 10.5455 69.9901 10.8412 69.4314 11.4326C68.889 12.0075 68.6181 12.837 68.6181 13.9213V21.4616H65.1685V7.81027H68.6181V9.51052C69.0785 8.91913 69.6613 8.45922 70.3678 8.13057C71.0906 7.78565 71.8791 7.61316 72.7335 7.61316Z" fill="#6D8295"/>
<path d="M84.4899 17.2478C84.4899 17.7078 84.5967 18.0445 84.8103 18.2581C85.0401 18.4552 85.4184 18.5538 85.9439 18.5538H87.5458V21.4616H85.3768C82.4693 21.4616 81.0153 20.0487 81.0153 17.2231V10.644H78.4556V7.81026H81.0153V4.43445H84.4899V17.2478Z" fill="#6D8295"/>
<path d="M100.48 7.8103L92.0282 27.9173H88.3563L91.3132 21.1165L85.8428 7.8103H89.7113L93.2354 17.3465L96.8084 7.8103H100.48Z" fill="#6D8295"/>
</g>
</g>
<defs>
<clipPath id="clip0_209_126">
<rect width="101" height="28" fill="white"/>
</clipPath>
</defs>
</svg>
