<svg width="141" height="27" viewBox="0 0 141 27" fill="none" xmlns="http://www.w3.org/2000/svg">
<g clip-path="url(#clip0_209_38)">
<mask id="mask0_209_38" style="mask-type:luminance" maskUnits="userSpaceOnUse" x="0" y="0" width="141" height="27">
<path d="M140.297 0H0.571777V27H140.297V0Z" fill="white"/>
</mask>
<g mask="url(#mask0_209_38)">
<path d="M4.00858 3.0066C5.90818 1.19295 8.48756 0.134359 11.1019 0.00268334C11.9966 0.00268334 12.894 0.00805342 13.7888 0C13.7431 0.959222 13.7887 1.92112 13.7619 2.8803C13.6357 5.02442 12.843 7.12017 11.5076 8.80213C9.77189 11.0645 7.11729 12.5825 4.29878 12.9748C3.0682 13.1737 1.81878 13.0473 0.580149 13.0823C0.601625 12.0263 0.534467 10.9678 0.617776 9.91453C0.859606 7.30289 2.09287 4.80142 4.00858 3.0066Z" fill="#6D8295"/>
<path d="M14.6172 0C15.5764 0.0107379 16.5357 -0.00536946 17.4975 0.00536842C19.8916 0.174627 22.2533 1.09353 24.0561 2.68688C26.0443 4.39301 27.4066 6.83269 27.7561 9.43893C27.9089 10.648 27.8124 11.8706 27.8716 13.085C27.0331 13.0823 26.1977 13.0796 25.3591 13.085C23.2984 13.0286 21.2726 12.3622 19.5476 11.2392C18.7523 10.6695 17.9355 10.0919 17.3391 9.3019C16.0305 7.84026 15.1412 6.00515 14.8053 4.07061C14.5527 2.72715 14.6549 1.35689 14.6172 0Z" fill="#6D8295"/>
<path d="M0.581704 13.8534C1.43346 13.9017 2.28789 13.813 3.13691 13.9071C6.77223 13.985 10.3001 16.027 12.1835 19.1357C13.2637 20.8768 13.8441 22.9401 13.7688 24.9904C13.7661 25.6619 13.7769 26.3312 13.7581 27C12.4093 26.96 11.047 27.0701 9.71168 26.8094C6.74537 26.3098 4.01823 24.5444 2.37652 22.0241C1.13252 20.1916 0.511861 17.9535 0.576334 15.7422C0.576334 15.1108 0.576335 14.4821 0.581704 13.8534Z" fill="#6D8295"/>
<path d="M23.3317 14.1381C24.7936 13.813 26.3005 13.8667 27.7865 13.8667L27.8511 13.9312C27.8189 15.3365 27.929 16.7578 27.6469 18.1469C27.0531 21.2636 24.9897 24.0471 22.2141 25.5759C20.4864 26.5378 18.5035 27.011 16.5286 26.9892C15.8972 26.9919 15.2631 26.9787 14.6317 26.9974C14.6317 25.8339 14.5833 24.665 14.715 23.5071C15.0213 20.7048 16.5366 18.0959 18.7158 16.3333C20.0645 15.2693 21.6498 14.4982 23.3317 14.1381Z" fill="#6D8295"/>
<path d="M38.8811 21.7961C38.8811 22.2692 38.7173 22.6694 38.3901 22.997C38.0807 23.3064 37.6894 23.4606 37.2167 23.4606C36.7616 23.4606 36.3795 23.3064 36.0705 22.997C35.7612 22.6694 35.6064 22.2692 35.6064 21.7961V4.93112C35.6064 4.45811 35.7612 4.06696 36.0705 3.7577C36.3977 3.43023 36.7981 3.26648 37.2713 3.26648C37.744 3.26648 38.1262 3.43023 38.4174 3.7577C38.7264 4.06696 38.8811 4.45811 38.8811 4.93112V21.7961Z" fill="#6D8295"/>
<path d="M52.0252 8.86084C52.498 8.86084 52.8893 9.02453 53.1987 9.35204C53.5076 9.66132 53.6623 10.0525 53.6623 10.5255V17.457C53.6623 19.3855 53.1259 20.9137 52.0525 22.0417C50.9788 23.1698 49.4327 23.7335 47.4129 23.7335C45.3937 23.7335 43.8472 23.1698 42.7739 22.0417C41.7187 20.9137 41.1909 19.3855 41.1909 17.457V10.5255C41.1909 10.0525 41.3456 9.66132 41.655 9.35204C41.9644 9.02453 42.3552 8.86084 42.8284 8.86084C43.3016 8.86084 43.6925 9.02453 44.0019 9.35204C44.3112 9.66132 44.466 10.0525 44.466 10.5255V17.457C44.466 18.5668 44.7116 19.3946 45.2026 19.9404C45.694 20.4679 46.4306 20.7318 47.4129 20.7318C48.414 20.7318 49.1597 20.4679 49.6511 19.9404C50.142 19.3946 50.3877 18.5668 50.3877 17.457V10.5255C50.3877 10.0525 50.5424 9.66132 50.8518 9.35204C51.1607 9.02453 51.552 8.86084 52.0252 8.86084Z" fill="#6D8295"/>
<path d="M63.5117 8.58801C64.9673 8.58801 66.0406 8.94279 66.7322 9.65229C67.4234 10.3436 67.8783 11.2442 68.0962 12.354L67.6326 12.1083L67.851 11.6718C68.069 11.2533 68.4053 10.8075 68.861 10.3346C69.3152 9.84331 69.8613 9.43399 70.4978 9.10655C71.1526 8.76081 71.8802 8.58801 72.6815 8.58801C73.991 8.58801 74.9825 8.86996 75.6555 9.43399C76.3474 9.99795 76.8199 10.7529 77.0744 11.699C77.3295 12.6269 77.4571 13.6639 77.4571 14.81V21.7962C77.4571 22.2692 77.3018 22.6694 76.9927 22.997C76.6835 23.3064 76.2927 23.4606 75.8195 23.4606C75.3464 23.4606 74.9555 23.3064 74.6457 22.997C74.3366 22.6694 74.182 22.2692 74.182 21.7962V14.81C74.182 14.2096 74.1098 13.673 73.964 13.2C73.8182 12.7087 73.5542 12.3176 73.1722 12.0265C72.7901 11.7354 72.2447 11.5898 71.5353 11.5898C70.8434 11.5898 70.2528 11.7354 69.7614 12.0265C69.27 12.3176 68.8967 12.7087 68.6423 13.2C68.4053 13.673 68.2872 14.2096 68.2872 14.81V21.7962C68.2872 22.2692 68.1326 22.6694 67.8237 22.997C67.5143 23.3064 67.123 23.4606 66.6503 23.4606C66.1771 23.4606 65.7858 23.3064 65.4769 22.997C65.1674 22.6694 65.0128 22.2692 65.0128 21.7962V14.81C65.0128 14.2096 64.94 13.673 64.7944 13.2C64.6488 12.7087 64.3849 12.3176 64.0031 12.0265C63.6209 11.7354 63.0749 11.5898 62.3657 11.5898C61.6745 11.5898 61.083 11.7354 60.5916 12.0265C60.1006 12.3176 59.7275 12.7087 59.4727 13.2C59.2366 13.673 59.1183 14.2096 59.1183 14.81V21.7962C59.1183 22.2692 58.9637 22.6694 58.6542 22.997C58.3448 23.3064 57.954 23.4606 57.4808 23.4606C57.0076 23.4606 56.6167 23.3064 56.3074 22.997C55.998 22.6694 55.8433 22.2692 55.8433 21.7962V10.5255C55.8433 10.0526 55.998 9.6614 56.3074 9.35211C56.6167 9.0246 57.0076 8.86092 57.4808 8.86092C57.954 8.86092 58.3448 9.0246 58.6542 9.35211C58.9637 9.6614 59.1183 10.0526 59.1183 10.5255V11.699L58.7088 11.6171C58.8726 11.3079 59.1001 10.9803 59.3909 10.6347C59.6821 10.2709 60.037 9.9343 60.4555 9.62502C60.8737 9.31573 61.3378 9.0701 61.8469 8.88819C62.3565 8.68805 62.9116 8.58801 63.5117 8.58801Z" fill="#6D8295"/>
<path d="M82.7199 21.796C82.7199 22.2691 82.5653 22.6693 82.2561 22.9969C81.947 23.3063 81.5555 23.4605 81.0823 23.4605C80.6098 23.4605 80.2183 23.3063 79.9092 22.9969C79.6 22.6693 79.4454 22.2691 79.4454 21.796V10.5254C79.4454 10.0525 79.6 9.66129 79.9092 9.35201C80.2183 9.0245 80.6098 8.86081 81.0823 8.86081C81.5555 8.86081 81.947 9.0245 82.2561 9.35201C82.5653 9.66129 82.7199 10.0525 82.7199 10.5254V21.796ZM81.0553 7.08698C80.437 7.08698 80.0003 6.98687 79.7451 6.78674C79.4907 6.58665 79.3638 6.23189 79.3638 5.72247V5.20396C79.3638 4.67635 79.5001 4.32159 79.7728 4.13968C80.0637 3.93953 80.5005 3.83948 81.0823 3.83948C81.7195 3.83948 82.1657 3.93953 82.4195 4.13968C82.6746 4.33979 82.8022 4.69455 82.8022 5.20396V5.72247C82.8022 6.25008 82.6652 6.61394 82.3925 6.81407C82.1198 6.99599 81.6743 7.08698 81.0553 7.08698Z" fill="#6D8295"/>
<path d="M92.5262 8.58801C93.8722 8.58801 94.8914 8.86996 95.5819 9.43399C96.292 9.99795 96.774 10.7529 97.0285 11.699C97.3018 12.6269 97.4382 13.6639 97.4382 14.81V21.7962C97.4382 22.2692 97.2836 22.6694 96.9738 22.997C96.6646 23.3064 96.2738 23.4606 95.8006 23.4606C95.3281 23.4606 94.9366 23.3064 94.6275 22.997C94.3177 22.6694 94.1631 22.2692 94.1631 21.7962V14.81C94.1631 14.2096 94.0814 13.673 93.9181 13.2C93.7723 12.7087 93.4996 12.3176 93.0986 12.0265C92.699 11.7354 92.1259 11.5898 91.3801 11.5898C90.6517 11.5898 90.0334 11.7354 89.5238 12.0265C89.0331 12.3176 88.651 12.7087 88.3777 13.2C88.1232 13.673 87.9956 14.2096 87.9956 14.81V21.7962C87.9956 22.2692 87.8417 22.6694 87.5319 22.997C87.2227 23.3064 86.8312 23.4606 86.3587 23.4606C85.8856 23.4606 85.4941 23.3064 85.1849 22.997C84.8758 22.6694 84.7212 22.2692 84.7212 21.7962V10.5255C84.7212 10.0526 84.8758 9.6614 85.1849 9.35211C85.4941 9.0246 85.8856 8.86092 86.3587 8.86092C86.8312 8.86092 87.2227 9.0246 87.5319 9.35211C87.8417 9.6614 87.9956 10.0526 87.9956 10.5255V11.699L87.5866 11.6171C87.7506 11.3079 87.9868 10.9803 88.296 10.6347C88.6051 10.2709 88.9696 9.9343 89.3875 9.62502C89.806 9.31573 90.2791 9.0701 90.8063 8.88819C91.3342 8.68805 91.9072 8.58801 92.5262 8.58801Z" fill="#6D8295"/>
<path d="M113.64 16.1745C113.64 17.6664 113.304 18.9854 112.631 20.1315C111.975 21.2595 111.084 22.1418 109.956 22.7786C108.847 23.4151 107.6 23.7337 106.217 23.7337C104.835 23.7337 103.58 23.4151 102.452 22.7786C101.342 22.1418 100.45 21.2595 99.7772 20.1315C99.1225 18.9854 98.7944 17.6664 98.7944 16.1745C98.7944 14.6827 99.1225 13.3727 99.7772 12.2448C100.45 11.0986 101.342 10.2072 102.452 9.57041C103.58 8.91546 104.835 8.58801 106.217 8.58801C107.6 8.58801 108.847 8.91546 109.956 9.57041C111.084 10.2072 111.975 11.0986 112.631 12.2448C113.304 13.3727 113.64 14.6827 113.64 16.1745ZM110.366 16.1745C110.366 15.2467 110.174 14.4461 109.792 13.773C109.428 13.0817 108.928 12.545 108.291 12.1629C107.673 11.7809 106.982 11.5898 106.217 11.5898C105.453 11.5898 104.753 11.7809 104.116 12.1629C103.498 12.545 102.997 13.0817 102.615 13.773C102.251 14.4461 102.07 15.2467 102.07 16.1745C102.07 17.0842 102.251 17.8847 102.615 18.576C102.997 19.2491 103.498 19.7767 104.116 20.1588C104.753 20.5408 105.453 20.7319 106.217 20.7319C106.982 20.7319 107.673 20.5408 108.291 20.1588C108.928 19.7767 109.428 19.2491 109.792 18.576C110.174 17.8847 110.366 17.0842 110.366 16.1745Z" fill="#6D8295"/>
<path d="M125.846 8.86084C126.319 8.86084 126.71 9.02453 127.019 9.35204C127.328 9.66132 127.483 10.0525 127.483 10.5255V17.457C127.483 19.3855 126.947 20.9137 125.873 22.0417C124.799 23.1698 123.253 23.7335 121.233 23.7335C119.214 23.7335 117.668 23.1698 116.594 22.0417C115.539 20.9137 115.011 19.3855 115.011 17.457V10.5255C115.011 10.0525 115.166 9.66132 115.476 9.35204C115.785 9.02453 116.176 8.86084 116.649 8.86084C117.122 8.86084 117.513 9.02453 117.823 9.35204C118.132 9.66132 118.286 10.0525 118.286 10.5255V17.457C118.286 18.5668 118.532 19.3946 119.023 19.9404C119.515 20.4679 120.251 20.7318 121.233 20.7318C122.234 20.7318 122.98 20.4679 123.471 19.9404C123.962 19.3946 124.208 18.5668 124.208 17.457V10.5255C124.208 10.0525 124.363 9.66132 124.672 9.35204C124.982 9.02453 125.372 8.86084 125.846 8.86084Z" fill="#6D8295"/>
<path d="M128.818 21.1958C128.636 20.9411 128.554 20.6136 128.572 20.2134C128.59 19.8131 128.827 19.4675 129.282 19.1764C129.573 18.9944 129.882 18.9217 130.209 18.958C130.537 18.9763 130.855 19.14 131.164 19.4493C131.692 19.9768 132.247 20.3862 132.83 20.6773C133.412 20.9684 134.139 21.1139 135.013 21.1139C135.285 21.0957 135.585 21.0594 135.913 21.0048C136.24 20.932 136.523 20.7865 136.759 20.5682C137.013 20.3317 137.141 19.9768 137.141 19.5038C137.141 19.1036 137.005 18.7852 136.731 18.5487C136.459 18.3122 136.095 18.1121 135.64 17.9483C135.204 17.7846 134.712 17.63 134.167 17.4844C133.603 17.3207 133.02 17.1387 132.42 16.9386C131.837 16.7385 131.301 16.4838 130.809 16.1745C130.319 15.847 129.918 15.4195 129.609 14.8919C129.3 14.3643 129.146 13.7003 129.146 12.8998C129.146 11.9901 129.399 11.2169 129.909 10.5801C130.419 9.94341 131.073 9.45215 131.874 9.10655C132.693 8.76081 133.548 8.58801 134.439 8.58801C135.003 8.58801 135.595 8.66078 136.213 8.80631C136.832 8.93368 137.423 9.15198 137.987 9.46126C138.551 9.75232 139.024 10.1435 139.406 10.6347C139.606 10.9077 139.724 11.2351 139.761 11.6171C139.797 11.9992 139.624 12.3449 139.242 12.6541C138.97 12.8724 138.651 12.9725 138.287 12.9543C137.923 12.9179 137.623 12.7906 137.387 12.5723C137.077 12.1721 136.659 11.8537 136.131 11.6171C135.622 11.3806 135.031 11.2624 134.357 11.2624C134.085 11.2624 133.784 11.2987 133.457 11.3715C133.148 11.4261 132.875 11.5626 132.638 11.7809C132.402 11.981 132.284 12.3085 132.284 12.7633C132.284 13.1818 132.42 13.5183 132.693 13.773C132.966 14.0095 133.329 14.2097 133.784 14.3734C134.257 14.519 134.758 14.6645 135.285 14.81C135.831 14.9556 136.386 15.1284 136.95 15.3285C137.514 15.5287 138.032 15.7924 138.505 16.1199C138.979 16.4474 139.36 16.875 139.651 17.4025C139.943 17.9119 140.089 18.5669 140.089 19.3674C140.089 20.2953 139.815 21.0867 139.269 21.7416C138.724 22.3966 138.041 22.8969 137.223 23.2427C136.405 23.5698 135.567 23.7337 134.712 23.7337C133.639 23.7337 132.566 23.5516 131.492 23.1881C130.419 22.8059 129.527 22.1418 128.818 21.1958Z" fill="#6D8295"/>
</g>
</g>
<defs>
<clipPath id="clip0_209_38">
<rect width="141" height="27" fill="white"/>
</clipPath>
</defs>
</svg>
