<svg width="148" height="24" viewBox="0 0 148 24" fill="none" xmlns="http://www.w3.org/2000/svg">
<mask id="mask0_209_86" style="mask-type:luminance" maskUnits="userSpaceOnUse" x="0" y="0" width="148" height="24">
<path d="M147.333 0H0V24H147.333V0Z" fill="white"/>
</mask>
<g mask="url(#mask0_209_86)">
<path fill-rule="evenodd" clip-rule="evenodd" d="M14.8512 0.596313C12.5077 0.596313 10.608 2.49605 10.608 4.83951C10.608 7.18292 12.5077 9.08272 14.8512 9.08272C17.1947 9.08272 19.0943 7.18292 19.0943 4.83951C19.0943 2.49605 17.1947 0.596313 14.8512 0.596313ZM6.55478 8.85112C10.9717 8.85112 14.5523 12.4318 14.5523 16.8486V23.4035H10.5743V16.8486C10.5743 16.3784 10.4935 15.9268 10.3451 15.5073L4.50195 21.3504L1.68908 18.5374L7.32393 12.9027C7.075 12.8544 6.8178 12.8291 6.55478 12.8291H0V8.85112H6.55478ZM23.2466 8.85112C18.8297 8.85112 15.249 12.4318 15.249 16.8486V23.4035H19.2269V16.8486C19.2269 16.4803 19.2765 16.1233 19.3694 15.7844L25.4817 21.8967L28.2947 19.0837L22.1823 12.9715C22.5213 12.8787 22.8782 12.8291 23.2466 12.8291H29.8013V8.85112H23.2466Z" fill="#6D8295"/>
<path d="M36.166 23.6326V0.7677H42.6416L49.5845 20.3614H50.0853V0.7677H53.7903V23.6326H47.4484L40.3384 4.00552H39.8711V23.6326H36.166Z" fill="#6D8295"/>
<path d="M68.634 20.6286L69.5687 20.5286L69.6354 23.2323C67.0987 23.7441 64.8508 24 62.8926 24C60.4226 24 58.6423 23.3211 57.552 21.9638C56.4838 20.6063 55.9497 18.4367 55.9497 15.4548C55.9497 9.53549 58.3641 6.57581 63.1931 6.57581C67.866 6.57581 70.2027 9.12376 70.2027 14.2198L69.9694 16.8235H59.6214C59.6437 18.203 59.9442 19.2156 60.5228 19.8608C61.1012 20.5063 62.1806 20.8288 63.7606 20.8288C65.3404 20.8288 66.9647 20.7622 68.634 20.6286ZM66.6312 14.0195C66.6312 12.3727 66.3641 11.2267 65.83 10.5814C65.3184 9.91376 64.4393 9.57996 63.1931 9.57996C61.9469 9.57996 61.0346 9.92489 60.456 10.6148C59.8996 11.3046 59.6102 12.4395 59.5882 14.0195H66.6312Z" fill="#6D8295"/>
<path d="M81.0114 10.0472H76.4054V17.3906C76.4054 18.7482 76.5054 19.6494 76.7054 20.0944C76.9061 20.5396 77.4174 20.7622 78.2414 20.7622L80.9781 20.6619L81.1447 23.5658C79.6541 23.8552 78.5194 24 77.7401 24C75.8487 24 74.5474 23.5658 73.8347 22.6981C73.1447 21.8301 72.8001 20.1946 72.8001 17.7914V10.0472H70.6641V6.94291H72.8001V2.10291H76.4054V6.94291H81.0114V10.0472Z" fill="#6D8295"/>
<path d="M81.0247 6.94299H84.5967L87.2333 20.5286H87.9007L91.072 7.27679H94.8107L97.982 20.5286H98.6493L101.253 6.94299H104.858L101.319 23.6327H95.5453L92.9413 12.1836L90.338 23.6327H84.5633L81.0247 6.94299Z" fill="#6D8295"/>
<path d="M107.181 8.74549C108.337 7.29903 110.251 6.57581 112.922 6.57581C115.592 6.57581 117.495 7.29903 118.629 8.74549C119.787 10.192 120.365 12.3616 120.365 15.2546C120.365 18.1474 119.809 20.3281 118.696 21.797C117.583 23.2657 115.659 24 112.922 24C110.185 24 108.259 23.2657 107.147 21.797C106.034 20.3281 105.478 18.1474 105.478 15.2546C105.478 12.3616 106.045 10.192 107.181 8.74549ZM109.917 19.5938C110.429 20.484 111.431 20.929 112.922 20.929C114.413 20.929 115.414 20.484 115.926 19.5938C116.438 18.7038 116.693 17.2462 116.693 15.2212C116.693 13.1961 116.415 11.7608 115.859 10.9152C115.325 10.0696 114.346 9.64669 112.922 9.64669C111.497 9.64669 110.507 10.0696 109.951 10.9152C109.417 11.7608 109.15 13.1961 109.15 15.2212C109.15 17.2462 109.406 18.7038 109.917 19.5938Z" fill="#6D8295"/>
<path d="M122.31 23.6327V6.94296H125.915V8.94576C127.807 7.72183 129.699 6.93189 131.59 6.57581V10.2142C129.676 10.5925 128.041 11.082 126.683 11.6829L125.949 11.9833V23.6327H122.31Z" fill="#6D8295"/>
<path d="M136.341 23.6327H132.703V0H136.341V13.6522L138.41 13.4519L142.349 6.94293H146.421L141.615 14.7538L146.689 23.6327H142.583L138.511 16.5895L136.341 16.8235V23.6327Z" fill="#6D8295"/>
</g>
</svg>
